<?xml version="1.0" encoding="UTF-8"?>
<svg version="1.1" xmlns="http://www.w3.org/2000/svg" width="750" height="750">
<path d="M0 0 C0.69769501 -0.00261841 1.39539001 -0.00523682 2.11422729 -0.00793457 C15.0302567 -0.01314557 27.42359219 0.28570018 38.1875 8.3125 C49.88457171 23.68579424 45.17003514 47.76625337 43.1875 65.5625 C41.40731553 81.39553934 41.40731553 81.39553934 41.1875 97.3125 C41.21569824 98.24755371 41.24389648 99.18260742 41.27294922 100.14599609 C41.36824076 102.8904872 41.49154127 105.63212428 41.625 108.375 C41.68397461 109.75848633 41.68397461 109.75848633 41.74414062 111.16992188 C41.78603516 112.05357422 41.82792969 112.93722656 41.87109375 113.84765625 C41.92608032 115.02920288 41.92608032 115.02920288 41.98217773 116.23461914 C42.12927949 118.50685004 42.12927949 118.50685004 43.1875 121.3125 C43.87714844 121.28929687 44.56679688 121.26609375 45.27734375 121.2421875 C56.7945358 121.02100686 64.22296982 122.70326309 73.1875 130.3125 C73.88875 131.281875 74.59 132.25125 75.3125 133.25 C76.240625 134.2709375 76.240625 134.2709375 77.1875 135.3125 C79.19654757 135.34438964 81.21033113 135.36909859 83.21484375 135.23046875 C86.43855587 135.36452411 88.05641104 137.04821798 90.1875 139.3125 C90.1875 139.9725 90.1875 140.6325 90.1875 141.3125 C90.8475 140.9825 91.5075 140.6525 92.1875 140.3125 C96.18959082 140.05149408 98.79261582 140.15743012 102.1875 142.3125 C103.51733206 143.9110404 104.78390463 145.56331782 106 147.25 C109.45067269 151.70289012 111.91051822 153.25537151 117.1875 155.3125 C125.33527707 160.73243943 130.22282556 166.42395569 134.1875 175.3125 C134.58710937 176.15683594 134.98671875 177.00117188 135.3984375 177.87109375 C138.37792579 184.30552059 139.36883635 189.49365599 139.375 196.625 C139.38724609 197.35912109 139.39949219 198.09324219 139.41210938 198.84960938 C139.42511141 203.73404151 138.6597233 207.66214385 137.1875 212.3125 C137.29958455 216.68379738 139.49370517 219.46614645 142.03125 222.859375 C144.81012444 228.75509511 144.21257569 235.40066703 143.86791992 241.75854492 C143.3695641 249.8047848 143.3695641 249.8047848 145.7890625 257.29296875 C147.83017788 259.52119759 147.83017788 259.52119759 150.078125 261.43359375 C154.67069759 265.52438526 157.35707059 271.27070232 158.1875 277.3125 C158.34791646 280.25138829 158.37256994 283.18219315 158.375 286.125 C158.38724609 286.89392578 158.39949219 287.66285156 158.41210938 288.45507812 C158.43357386 296.93355042 156.35409099 303.69082862 152.5 311.1875 C152.14623291 311.88294922 151.79246582 312.57839844 151.42797852 313.29492188 C147.67468768 320.5246008 143.4690416 327.04383489 137.6875 332.8125 C134.08234409 336.74395037 132.71418593 340.99093712 131 345.9375 C127.39168914 356.22070795 120.68925103 366.46377391 111.1875 372.3125 C103.12783872 374.69719379 95.0780268 372.31991362 87.1875 370.3125 C85.85428894 369.97867796 84.52098164 369.64523954 83.1875 369.3125 C83.33372803 370.28485596 83.47995605 371.25721191 83.63061523 372.2590332 C84.17986746 375.91708899 84.72491959 379.57576098 85.26879883 383.23461914 C85.5033565 384.80867958 85.73900559 386.38257784 85.97583008 387.95629883 C89.72652273 412.89483662 91.69375293 438.48096067 86.1875 463.3125 C86.04828125 463.99328613 85.9090625 464.67407227 85.765625 465.37548828 C84.34935019 472.20606365 82.72336541 477.92866079 78.4375 483.5625 C74.35154357 489.35021842 74.81268802 494.37974813 75.10791016 501.16918945 C75.40588298 509.17063615 73.94903669 516.14477142 70.125 523.30078125 C68.93597395 525.85223299 68.52455446 528.29017324 68.0625 531.0625 C67.89492188 532.04734375 67.72734375 533.0321875 67.5546875 534.046875 C67.43351563 534.79453125 67.31234375 535.5421875 67.1875 536.3125 C67.97125 536.580625 68.755 536.84875 69.5625 537.125 C72.1875 538.3125 72.1875 538.3125 74.1875 541.3125 C74.79844746 547.91781598 73.16371806 554.23474058 71.875 560.6875 C67.82208633 582.20000345 65.91315106 602.68423752 65.875 624.5625 C65.87132416 625.59952057 65.86764832 626.63654114 65.86386108 627.70498657 C65.85834437 630.68374446 65.8690962 633.66192248 65.88671875 636.640625 C65.88595337 637.54167465 65.88518799 638.4427243 65.88439941 639.37107849 C65.93330449 643.75199186 66.01799062 647.38023438 68.1875 651.3125 C70.20856021 653.19925951 70.20856021 653.19925951 72.6875 654.75 C73.5846875 655.34554687 74.481875 655.94109375 75.40625 656.5546875 C80.54994652 659.80561929 85.76182663 662.92022994 91.0390625 665.94921875 C91.95429687 666.48160156 92.86953125 667.01398437 93.8125 667.5625 C94.65039062 668.04203125 95.48828125 668.5215625 96.3515625 669.015625 C96.95742188 669.44359375 97.56328125 669.8715625 98.1875 670.3125 C98.1875 670.9725 98.1875 671.6325 98.1875 672.3125 C99.06277344 672.59843018 99.93804688 672.88436035 100.83984375 673.17895508 C113.24664708 677.38000437 125.63708029 682.36899593 137.4375 688.0625 C138.45328125 688.55234375 139.4690625 689.0421875 140.515625 689.546875 C143.91243758 691.79155232 145.79695783 694.00943905 148.1875 697.3125 C148.98813226 701.71597742 148.44936394 704.38145983 146.0625 708.0625 C141.19717207 714.12044313 134.52401108 715.22066309 127.1875 716.3125 C123.30746416 716.58238877 119.45062997 716.59256286 115.5625 716.5625 C114.61632812 716.57023438 113.67015625 716.57796875 112.6953125 716.5859375 C106.50176808 716.57005662 100.42410759 716.17652245 94.26115417 715.60090637 C77.25434374 714.01973123 60.28350992 713.934617 43.21362305 713.85620117 C28.52218888 713.78219222 14.56477902 713.45763035 0.1875 710.3125 C-1.89482499 710.03402003 -3.97799717 709.76168 -6.0625 709.5 C-9.71664762 708.45436872 -10.59905645 707.66714467 -12.58984375 704.359375 C-18.36784781 689.5702455 -15.26309866 677.04571459 -9.6875 662.6875 C-3.6500585 646.55583812 -6.30791324 631.37799149 -10.8125 615.3125 C-11.0089209 614.59980957 -11.2053418 613.88711914 -11.40771484 613.15283203 C-13.40387724 605.94760559 -15.49464363 598.9093211 -18.375 592 C-23.66754994 578.77697302 -25.98640213 563.334773 -26 549.125 C-26.01224609 548.43986328 -26.02449219 547.75472656 -26.03710938 547.04882812 C-26.04869345 543.03687694 -25.72277434 539.87164271 -23.8125 536.3125 C-20.59798731 534.70524365 -17.37637464 535.25501815 -13.8125 535.3125 C-13.69648437 533.75595703 -13.69648437 533.75595703 -13.578125 532.16796875 C-12.71396133 527.81628742 -11.43166247 525.95493857 -8.5625 522.625 C-7.79421875 521.71363281 -7.0259375 520.80226563 -6.234375 519.86328125 C-3.09628605 516.55816499 0.33399291 513.9384052 4 511.25 C7.33575144 506.77056236 6.86636262 502.71420259 6.1875 497.3125 C5.60527307 494.79602924 4.88193632 492.39551168 4.0546875 489.94921875 C2.47662132 485.15104455 1.3761909 480.21901136 0.1875 475.3125 C-2.39874341 477.7629113 -4.35837445 480.00288939 -6.0625 483.125 C-8.42295715 487.03022116 -11.19143843 489.63541366 -14.69921875 492.515625 C-16.93007412 494.4124706 -18.91650453 496.44489863 -20.9375 498.5625 C-23.4059447 501.11322619 -24.71156245 502.27173676 -28.0625 503.625 C-32.64650884 506.43791452 -33.24050674 511.37799201 -34.8125 516.3125 C-37.32862903 521.82862903 -37.32862903 521.82862903 -39.8125 524.3125 C-40.21326272 527.05780073 -40.21326272 527.05780073 -40.3046875 530.2890625 C-40.39907104 532.12041748 -40.39907104 532.12041748 -40.49536133 533.98876953 C-40.55876709 535.29185059 -40.62217285 536.59493164 -40.6875 537.9375 C-41.500527 552.20763837 -43.16030969 564.82593797 -49.56640625 577.78515625 C-50.52500887 579.72940671 -51.40665326 581.71173898 -52.25390625 583.70703125 C-53.76539653 587.20353632 -55.43703623 590.55538222 -57.1875 593.9375 C-65.77550568 610.93175463 -68.98923322 626.84198838 -70.07885742 645.71923828 C-70.65801652 655.25857115 -70.65801652 655.25857115 -71.92578125 659.8828125 C-72.95077487 663.84732528 -72.36768298 665.75577534 -71.3125 669.57421875 C-70.66632418 673.113041 -70.82281021 676.54910642 -70.9375 680.125 C-71.06723738 685.1256297 -70.7626718 689.21095277 -68.8125 693.875 C-66.4627568 699.95569745 -66.3259915 705.80622065 -66.25 712.25 C-66.21036133 713.76219116 -66.21036133 713.76219116 -66.16992188 715.30493164 C-66.19212853 720.03138057 -66.24118023 722.52372288 -69.0703125 726.4296875 C-71.67112988 728.21543391 -73.1764697 729.04722691 -76.25 729.5 C-77.55324219 729.70302734 -77.55324219 729.70302734 -78.8828125 729.91015625 C-79.84960938 730.04292969 -80.81640625 730.17570313 -81.8125 730.3125 C-82.90304687 730.49683594 -83.99359375 730.68117188 -85.1171875 730.87109375 C-100.92284701 733.42323254 -119.98566265 734.36829358 -133.796875 724.85546875 C-134.79460937 724.09169922 -134.79460937 724.09169922 -135.8125 723.3125 C-136.41578125 722.87550781 -137.0190625 722.43851563 -137.640625 721.98828125 C-142.1263699 718.53687073 -144.6956074 714.82838187 -145.8125 709.3125 C-146.78542029 698.43493218 -144.42167902 691.03257715 -138.3125 682.125 C-134.66505031 676.64606494 -133.27820085 671.2662322 -131.78515625 664.90625 C-130.66001214 660.74909104 -129.00370545 657.27617262 -126.86328125 653.55859375 C-124.6819942 648.89599132 -124.67980049 643.85446012 -124.62304688 638.7824707 C-124.60632935 637.50285965 -124.58961182 636.2232486 -124.5723877 634.90486145 C-124.56570572 634.226999 -124.55902374 633.54913654 -124.55213928 632.8507328 C-124.53085608 630.69844553 -124.50384415 628.54629345 -124.47546387 626.39408875 C-124.41601211 621.80444744 -124.3639631 617.21473674 -124.3125 612.625 C-123.73647304 561.813217 -123.73647304 561.813217 -120.5625 545.3125 C-120.37042969 544.20261719 -120.17835938 543.09273437 -119.98046875 541.94921875 C-118.58748677 534.49369886 -116.26480921 528.06157854 -112.8125 521.3125 C-113.65554688 520.80460938 -114.49859375 520.29671875 -115.3671875 519.7734375 C-119.46181376 517.03967939 -122.6286551 513.5523241 -125.9375 509.9375 C-126.54464844 509.29039062 -127.15179688 508.64328125 -127.77734375 507.9765625 C-131.19765293 504.28054212 -134.04538052 500.53281133 -136.8125 496.3125 C-140.38000149 492.64922666 -144.39042351 489.85519398 -148.8125 487.3125 C-149.8025 486.52875 -150.7925 485.745 -151.8125 484.9375 C-168.87093896 472.75814143 -194.42885405 472.75788165 -214.62915039 471.61621094 C-232.9028161 470.582881 -249.53205714 468.62650797 -266.8125 462.3125 C-267.86953125 461.94769531 -268.9265625 461.58289063 -270.015625 461.20703125 C-274.58980146 459.61096166 -278.78966654 458.07551373 -282.8125 455.3125 C-282.8125 454.6525 -282.8125 453.9925 -282.8125 453.3125 C-283.88757813 452.92384766 -283.88757813 452.92384766 -284.984375 452.52734375 C-295.5138641 448.00431736 -305.08799789 438.78963421 -309.8125 428.3125 C-310.4725 428.3125 -311.1325 428.3125 -311.8125 428.3125 C-320.6860724 408.99021632 -325.59494901 391.43601213 -327.98825073 370.33712769 C-329.8967601 353.70846634 -333.30262552 337.92295982 -341.8125 323.3125 C-342.31910156 322.38824219 -342.82570313 321.46398437 -343.34765625 320.51171875 C-346.04097768 315.75191029 -348.36649791 312.61138857 -352.8125 309.3125 C-353.81667969 309.95316406 -354.82085937 310.59382813 -355.85546875 311.25390625 C-362.28517789 315.32921882 -368.6900618 319.33864178 -375.4375 322.875 C-380.24743499 325.40622829 -384.8635491 328.13344183 -389.4375 331.0625 C-390.32622803 331.62819702 -390.32622803 331.62819702 -391.23291016 332.20532227 C-394.05939611 334.04052684 -396.44953662 335.92922462 -398.8125 338.3125 C-400.18561435 339.1033272 -401.58422739 339.850855 -403 340.5625 C-407.28929688 342.85433019 -410.6629317 345.62129286 -414.18359375 348.95703125 C-415.8125 350.3125 -415.8125 350.3125 -417.8125 350.3125 C-417.8125 350.9725 -417.8125 351.6325 -417.8125 352.3125 C-418.864375 352.869375 -419.91625 353.42625 -421 354 C-424.50503863 355.99885737 -427.02363319 358.38061438 -429.8125 361.3125 C-435.30430328 366.3125 -435.30430328 366.3125 -437.8125 366.3125 C-437.8125 366.9725 -437.8125 367.6325 -437.8125 368.3125 C-438.451875 368.415625 -439.09125 368.51875 -439.75 368.625 C-440.430625 368.851875 -441.11125 369.07875 -441.8125 369.3125 C-442.1425 370.3025 -442.4725 371.2925 -442.8125 372.3125 C-444.36579607 373.66491443 -445.97938469 374.94907208 -447.625 376.1875 C-451.29186032 378.949832 -453.99006113 381.70319938 -456.8125 385.3125 C-458.15530264 386.57676135 -459.52947827 387.80880291 -460.9375 389 C-462.96838091 390.7281647 -464.92604179 392.42604179 -466.8125 394.3125 C-469.9375 393.9375 -469.9375 393.9375 -472.8125 393.3125 C-479.75070356 378.1425295 -472.74711128 359.01332666 -467.375 344.1875 C-466.57294999 342.12508569 -465.74986064 340.07050259 -464.890625 338.03125 C-463.72161571 335.25445379 -463.72161571 335.25445379 -462.97265625 331.9921875 C-461.56325128 327.52195356 -459.44394925 323.91116712 -457 319.9375 C-456.138169 318.51371868 -455.27749444 317.08923671 -454.41796875 315.6640625 C-453.76828125 314.59418091 -453.76828125 314.59418091 -453.10546875 313.50268555 C-451.80516974 311.30008313 -450.59422059 309.06316523 -449.38671875 306.80859375 C-446.80425684 302.12443396 -443.72640384 297.9580904 -440.4375 293.75 C-439.89867187 293.04681641 -439.35984375 292.34363281 -438.8046875 291.61914062 C-435.5121126 287.35839192 -432.0746749 283.26467085 -428.50439453 279.23461914 C-426.91448363 277.42836106 -425.36116794 275.59815075 -423.8203125 273.75 C-412.33825898 260.02392241 -412.33825898 260.02392241 -405.8125 255.3125 C-405.1525 255.3125 -404.4925 255.3125 -403.8125 255.3125 C-403.44898438 254.43464844 -403.44898438 254.43464844 -403.078125 253.5390625 C-399.28804063 246.87132147 -390.65897519 242.40478834 -384.5 237.9375 C-383.91379883 237.50872559 -383.32759766 237.07995117 -382.72363281 236.63818359 C-380.19069412 234.82698071 -377.87061952 233.33492094 -374.95703125 232.2109375 C-374.24933594 231.91445312 -373.54164063 231.61796875 -372.8125 231.3125 C-372.4825 230.3225 -372.1525 229.3325 -371.8125 228.3125 C-370.15273083 227.5641406 -368.48687569 226.82614817 -366.79199219 226.16113281 C-363.43809987 224.72327765 -360.48521249 222.67726208 -357.4375 220.6875 C-351.10893494 216.63703986 -344.65144721 213.02378061 -337.97705078 209.57885742 C-333.45569976 207.2294051 -329.12464834 204.71580006 -324.8125 202 C-320.65250534 199.38322916 -316.58827926 197.1874576 -312.05859375 195.30078125 C-305.9901784 192.6306785 -300.21512108 189.2734497 -294.6875 185.625 C-292.13617337 183.99965203 -289.81341555 182.89600251 -286.91796875 182.03515625 C-280.49939007 179.97091935 -274.41362958 177.15296551 -268.25 174.4375 C-259.33753101 170.54460574 -250.49124565 167.01217029 -241.140625 164.31640625 C-234.82278985 162.41067428 -228.8542445 159.65819325 -222.828125 156.9921875 C-221.33539063 156.34636719 -221.33539063 156.34636719 -219.8125 155.6875 C-218.94625 155.30335938 -218.08 154.91921875 -217.1875 154.5234375 C-214.22571918 153.46076151 -211.38374418 152.69848005 -208.328125 151.97265625 C-201.22841089 150.25138071 -194.43572455 147.83131187 -187.5625 145.375 C-178.63110548 142.22668943 -169.77258396 139.30281589 -160.53515625 137.171875 C-156.0157996 136.12858175 -151.53952234 134.96052535 -147.0625 133.75 C-146.29848877 133.55172607 -145.53447754 133.35345215 -144.74731445 133.14916992 C-140.82178625 132.08041891 -137.93120099 130.9240336 -134.8125 128.3125 C-134.1525 128.3125 -133.4925 128.3125 -132.8125 128.3125 C-132.8125 127.6525 -132.8125 126.9925 -132.8125 126.3125 C-126.25120217 121.06346174 -117.27256296 121.07112763 -109.2578125 121.33984375 C-106.92467066 121.3137543 -105.03816422 120.98019926 -102.8125 120.3125 C-102.8125 119.6525 -102.8125 118.9925 -102.8125 118.3125 C-97.12476176 114.62600299 -92.66420064 112.19466016 -85.8125 113.3125 C-84.29101952 113.76868046 -82.77019911 114.22706744 -81.25 114.6875 C-78.41375359 115.40758329 -77.35928404 115.6287252 -74.79296875 114.14453125 C-72.9284063 112.5400372 -72.9284063 112.5400372 -71.3203125 110.79296875 C-68.97549036 108.49066929 -66.99179387 108.31618728 -63.7734375 108.25 C-61.39843274 108.29139442 -59.02343264 108.33305748 -56.6484375 108.375 C-52.31734763 108.30443234 -48.10480208 107.86175773 -43.8125 107.3125 C-42.43021583 94.13064948 -41.39392035 81.41918848 -42.99291992 68.23095703 C-48.36581335 22.40616538 -48.36581335 22.40616538 -39.0703125 9.984375 C-33.07721571 4.58400207 -27.70297676 2.64594649 -19.8125 1.3125 C-19.06814697 1.14266602 -18.32379395 0.97283203 -17.55688477 0.79785156 C-11.78128431 -0.22357836 -5.85169286 0.0207703 0 0 Z M82.1875 275.3125 C77.75987274 288.25148839 75.73662512 300.63596209 76.1875 314.3125 C77.1775 313.8175 77.1775 313.8175 78.1875 313.3125 C79.92618744 313.15983388 81.66997501 313.06317404 83.4140625 312.99609375 C84.9609375 312.93325195 84.9609375 312.93325195 86.5390625 312.86914062 C87.61929688 312.82982422 88.69953125 312.79050781 89.8125 312.75 C90.90046875 312.70681641 91.9884375 312.66363281 93.109375 312.61914062 C95.8019517 312.5128547 98.49462253 312.41081943 101.1875 312.3125 C99.85338341 309.28386565 99.15707248 308.29018649 96.375 306.25 C91.31229985 302.19486425 88.62395704 295.86367319 87.84375 289.515625 C87.79733045 285.59317284 88.13612039 282.09574303 89.1875 278.3125 C86.8775 277.3225 84.5675 276.3325 82.1875 275.3125 Z " fill="#050604" transform="translate(504.8125,8.6875)"/>
<path d="M0 0 C0.00257813 0.63164062 0.00515625 1.26328125 0.0078125 1.9140625 C0.37995361 10.52292691 3.38858817 17.27409409 7 25 C7.50144531 26.20140625 8.00289062 27.4028125 8.51953125 28.640625 C10.51634819 33.1716608 13.11337904 36.99597737 16 41 C16.40605469 41.58652344 16.81210937 42.17304688 17.23046875 42.77734375 C25.44956997 53.52539919 40.33232697 61.8275224 52.90625 66.15625 C56.56315572 67.62992843 59.92157288 69.67557439 63.35546875 71.6015625 C65.51872037 72.74549762 67.50141409 73.61288602 69.8125 74.375 C81.09385853 78.33498708 94.56855634 86.56855634 103 95 C103.30885092 96.69868004 103.54937881 98.4101665 103.75 100.125 C104.9014991 107.09796678 108.11037951 111.42277091 113.3125 116.0625 C115 118 115 118 115.375 121.5 C115.66477815 125.15637637 115.66477815 125.15637637 118.5 127.3125 C122.61013408 129.29417179 126.52255427 130.24380916 131 131 C130.31195504 137.19240462 128.71951285 143.01955594 127 149 C126.34 149 125.68 149 125 149 C124.90203125 149.63164062 124.8040625 150.26328125 124.703125 150.9140625 C123.82942408 156.14120421 122.7022599 161.12660702 121.125 166.1875 C116.25955829 183.21654597 114.62242443 199.91128154 114.625 217.5625 C114.62318726 218.36606934 114.62137451 219.16963867 114.61950684 219.99755859 C114.62245532 231.53912181 115.19356133 242.8972734 117.71411133 254.203125 C118 257 118 257 117.07543945 258.88696289 C116.59292725 259.4102417 116.11041504 259.93352051 115.61328125 260.47265625 C115.08669922 261.06240234 114.56011719 261.65214844 114.01757812 262.25976562 C113.45490234 262.85466797 112.89222656 263.44957031 112.3125 264.0625 C111.22473147 265.26123898 110.13748197 266.46044917 109.05078125 267.66015625 C108.5295166 268.22492676 108.00825195 268.78969727 107.47119141 269.37158203 C105.54582665 271.50271096 103.76160341 273.73263211 102 276 C97.03185201 275.5378467 94.67897268 274.32276352 91 271 C89.40754479 269.01894224 87.86909512 266.99375466 86.375 264.9375 C77.80035851 253.52826628 68.28232086 245.12143956 56 238 C55.16984375 237.50757813 54.3396875 237.01515625 53.484375 236.5078125 C48.44018548 233.74551824 43.17064236 231.97409526 37.6875 230.3125 C37.02451904 230.10979492 36.36153809 229.90708984 35.6784668 229.69824219 C22.30997588 225.86816874 8.91332992 225.65776121 -4.875 225.5 C-20.37557565 225.3219584 -35.48448912 224.86198466 -50.5625 220.8125 C-51.35841553 220.59891846 -52.15433105 220.38533691 -52.97436523 220.1652832 C-72.42780066 214.6559828 -87.53656965 202.82512603 -97.40234375 185.18359375 C-100.0329216 179.94173324 -102.08624204 174.53810093 -104 169 C-104.24806396 168.31196289 -104.49612793 167.62392578 -104.75170898 166.91503906 C-106.58583406 161.68826362 -107.76517363 156.60079038 -108.5625 151.125 C-108.68689453 150.31200439 -108.81128906 149.49900879 -108.93945312 148.66137695 C-109.80163283 142.85115682 -110.43357416 137.03287266 -111 131.1875 C-113.10689631 110.01115172 -119.3981764 83.6018236 -135 68 C-133.53174272 64.15596705 -131.689783 62.94336825 -128.09765625 61.0546875 C-126.63875977 60.27544922 -126.63875977 60.27544922 -125.15039062 59.48046875 C-124.13138672 58.95066406 -123.11238281 58.42085938 -122.0625 57.875 C-120.05287644 56.81085648 -118.04374008 55.74579222 -116.03515625 54.6796875 C-115.1419165 54.21288574 -114.24867676 53.74608398 -113.32836914 53.26513672 C-110.83945811 51.95808112 -110.83945811 51.95808112 -108 50 C-106.68 50 -105.36 50 -104 50 C-104 49.34 -104 48.68 -104 48 C-94.56951716 42.95795967 -85.11041758 37.99604764 -75.52734375 33.25 C-71.98925928 31.49758944 -68.46418819 29.72046794 -64.94140625 27.9375 C-63.87801025 27.4010083 -62.81461426 26.8645166 -61.71899414 26.31176758 C-59.61899407 25.25213159 -57.52045084 24.18960203 -55.42358398 23.1237793 C-51.19771012 20.99705058 -47.02761277 18.93044836 -42.578125 17.3125 C-38.75131933 15.90878089 -35.53973562 14.09886758 -32.078125 11.98828125 C-30 11 -30 11 -26 11 C-26 10.34 -26 9.68 -26 9 C-23.29269941 7.87246056 -20.58422359 6.74790188 -17.875 5.625 C-16.73417969 5.14933594 -16.73417969 5.14933594 -15.5703125 4.6640625 C-4.29882812 0 -4.29882812 0 0 0 Z " fill="#92D300" transform="translate(299,243)"/>
<path d="M0 0 C5.50622414 1.6370912 11.00210537 3.30467534 16.48828125 5.0078125 C17.60654297 5.35457031 18.72480469 5.70132812 19.87695312 6.05859375 C22.18734496 6.77574778 24.49723334 7.49452555 26.80664062 8.21484375 C27.91845703 8.55902344 29.03027344 8.90320313 30.17578125 9.2578125 C31.17520752 9.5686377 32.17463379 9.87946289 33.2043457 10.19970703 C49.14767675 14.76369613 67.10036869 13.12307007 83.5 13.0625 C85.88411364 13.05747296 88.26822831 13.05291219 90.65234375 13.04882812 C96.43491871 13.03792254 102.21745439 13.02128065 108 13 C108.1166803 14.05988884 108.1166803 14.05988884 108.23571777 15.14118958 C108.59786813 18.39315025 108.97073946 21.64379909 109.34375 24.89453125 C109.46588867 26.00574341 109.58802734 27.11695557 109.71386719 28.26184082 C110.48675595 34.92066884 111.61399477 41.25481155 113.5 47.6875 C116.28844938 57.35338462 117.57073868 67.07034153 118.69042969 77.05493164 C118.91177533 79.07444262 118.91177533 79.07444262 120 81 C120.27321576 82.37394627 120.50735657 83.75581886 120.71875 85.140625 C120.91017578 86.37619141 120.91017578 86.37619141 121.10546875 87.63671875 C121.23566406 88.49910156 121.36585938 89.36148438 121.5 90.25 C121.76022306 91.94273811 122.02063552 93.63544711 122.28125 95.328125 C122.39533203 96.0799707 122.50941406 96.83181641 122.62695312 97.60644531 C122.89073547 99.29893363 123.19429195 100.98544734 123.52563477 102.66601562 C124.58023299 110.07805545 124.3470748 117.64281422 124.4050293 125.1171875 C124.42645553 127.18441632 124.46037136 129.25155833 124.50756836 131.31835938 C124.95868048 151.31498755 121.19442159 167.20836762 110 184 C109.83764818 186.06332271 109.83764818 186.06332271 110.05078125 188.33203125 C110.72268759 202.0313141 108.55551171 212.80806779 103.82128906 225.63183594 C102.63845197 229.04251364 101.80780548 232.48319028 101 236 C80.89611886 239.59686052 59.10388114 239.59686052 39 236 C40.70380936 226.98976492 44.01723284 221.91669583 51 216 C55.5543374 213.02573884 58.64284766 212.89904071 64 213 C63.7738698 196.75974016 60.31219736 182.731726 53.61328125 167.9375 C49.37934967 158.37618905 49.47461653 153.17278319 52.921875 143.42578125 C54.70774034 137.75112943 55.63411539 131.92936979 56.63671875 126.07763672 C57.11793957 123.32549343 57.64584165 120.58318144 58.17333984 117.83959961 C59.20425217 112.46967173 60.1563827 107.10050583 60.9375 101.6875 C61.77027377 96.10301705 62.84779638 90.58811599 64 85.0625 C64.1662085 84.25707764 64.33241699 83.45165527 64.50366211 82.62182617 C65.42073016 78.30443399 66.50326645 74.16279019 68 70 C67.34 70 66.68 70 66 70 C65.58814453 71.28003906 65.58814453 71.28003906 65.16796875 72.5859375 C64.4176713 74.77911465 63.61172631 76.95445607 62.73828125 79.1015625 C57.75219482 91.42334322 54.8127086 104.1875087 51.71459961 117.08984375 C50.89646945 120.42162081 49.97882149 123.71195882 49 127 C48.81195801 127.67071533 48.62391602 128.34143066 48.43017578 129.0324707 C41.81509871 152.54899176 29.98931522 175.09118172 9.125 188.9375 C5.45928634 191.51408828 3.41411726 193.02709131 2.5625 197.5 C2.47484375 198.25023437 2.3871875 199.00046875 2.296875 199.7734375 C1.40965647 206.42757647 -2.62199865 210.90688762 -7.328125 215.3515625 C-11.58039385 219.54422011 -13.82238977 224.55597441 -16 230 C-15.34 230 -14.68 230 -14 230 C-13.34 228.68 -12.68 227.36 -12 226 C-11.01 226 -10.02 226 -9 226 C-8.54708189 239.70496664 -9.24210299 252.45794417 -14.84765625 265.234375 C-16.0427396 268.10257505 -17.03021204 270.99596082 -18.01538086 273.94091797 C-20.79641279 282.2091505 -24.22133078 289.88497424 -28.265625 297.609375 C-31.37400743 303.68612264 -32.40007098 308.45060825 -32.81640625 315.203125 C-32.87779282 316.08152039 -32.93917938 316.95991577 -33.00242615 317.8649292 C-33.1968458 320.65948839 -33.38045333 323.45460963 -33.5625 326.25 C-33.74937194 329.05955604 -33.93860442 331.86889142 -34.13328552 334.67791748 C-34.25391502 336.42372317 -34.36980767 338.16986361 -34.48060608 339.9163208 C-34.88803307 345.88803307 -34.88803307 345.88803307 -36 347 C-48.06567219 347.7892012 -59.75752606 346.79734509 -71 342 C-70.58017915 335.62535187 -70.12878975 329.25819704 -69.5234375 322.8984375 C-68.52447879 312.30362112 -67.82341626 301.76353631 -67.5 291.125 C-66.31438825 254.26771438 -60.08019866 219.26728191 -33.25 192.1875 C-30.45968859 188.23455884 -30.93427145 186.96478768 -31.56884766 182.4206543 C-31.96302729 180.20757896 -32.43378657 178.04500193 -32.97265625 175.86328125 C-39.15462875 150.76301698 -37.92854286 122.01200013 -32 97 C-31.85481934 96.37766479 -31.70963867 95.75532959 -31.56005859 95.11413574 C-30.41512134 90.21129564 -29.22353038 85.32129247 -28 80.4375 C-27.83282471 79.76502228 -27.66564941 79.09254456 -27.4934082 78.39968872 C-22.94527804 60.31364325 -22.94527804 60.31364325 -14.87231445 55.43798828 C-14.23382568 55.06657715 -13.59533691 54.69516602 -12.9375 54.3125 C-5.21754292 49.52339805 0.12953884 43.89097162 6 37 C6.75925781 36.34773438 7.51851563 35.69546875 8.30078125 35.0234375 C10.24050069 33.05461748 10.24050069 33.05461748 10.5234375 30.078125 C9.85257493 26.13305259 8.39533543 24.59898848 5.625 21.75 C4.81289063 20.89921875 4.00078125 20.0484375 3.1640625 19.171875 C1.77724451 17.78005045 0.38932353 16.38932353 -1 15 C-0.98252112 12.40730017 -0.86231408 9.9474846 -0.625 7.375 C-0.53992188 6.31539063 -0.53992188 6.31539063 -0.453125 5.234375 C-0.31159079 3.48878639 -0.15702613 1.74426327 0 0 Z " fill="#EEEEEE" transform="translate(461,313)"/>
<path d="M0 0 C0.86069092 -0.01764404 1.72138184 -0.03528809 2.6081543 -0.0534668 C7.46701883 -0.04821707 10.48572816 0.29989901 14.5 3.3125 C24.4572388 7.68397069 36.92898936 6.46990277 47.5625 6.4375 C48.86638672 6.44136719 50.17027344 6.44523438 51.51367188 6.44921875 C52.75826172 6.44792969 54.00285156 6.44664062 55.28515625 6.4453125 C56.40801025 6.44418457 57.53086426 6.44305664 58.68774414 6.44189453 C61.58136217 6.43665144 61.58136217 6.43665144 64.5 5.3125 C73.3161578 4.12599835 80.97865565 6.03612576 89.4375 8.3125 C102.93795508 11.87690149 112.67553717 12.42973357 126.02929688 8.11669922 C134.14107762 5.60337096 143.20313528 4.14795138 151.30078125 7.45703125 C153.75 8.9375 153.75 8.9375 156.0859375 10.61328125 C158.74139208 12.4824119 161.42829716 13.76586187 164.375 15.125 C179.76675755 22.74153982 187.88168508 32.28575306 193.5 48.3125 C195.14930333 54.87839745 196.34519932 63.96511754 193 70.125 C190.5 72.3125 190.5 72.3125 187 73.0625 C182.07585059 72.69137845 178.21026434 70.27478569 173.9296875 67.9765625 C170.06948137 66.1036151 166.21839413 64.75772836 162.125 63.5 C161.45919922 63.2935083 160.79339844 63.0870166 160.10742188 62.87426758 C153.56886646 60.91845094 147.39969873 60.15155064 140.59375 60.109375 C139.84023254 60.10240601 139.08671509 60.09543701 138.31036377 60.08825684 C135.87351902 60.07086733 133.43690433 60.06453046 131 60.0625 C130.1687561 60.06149292 129.33751221 60.06048584 128.4810791 60.05944824 C98.74093526 60.01002608 98.74093526 60.01002608 70.5 68.3125 C67.8174149 68.49192729 65.18475561 68.59034309 62.5 68.625 C61.42298828 68.66850586 61.42298828 68.66850586 60.32421875 68.71289062 C48.88814267 68.84492347 40.3770195 62.58969962 31.375 56.1875 C30.323125 55.45917969 29.27125 54.73085937 28.1875 53.98046875 C22.50021028 49.98459376 22.50021028 49.98459376 20.5 48.3125 C20.5 47.6525 20.5 46.9925 20.5 46.3125 C19.51 46.3125 18.52 46.3125 17.5 46.3125 C14.79110909 52.77216294 12.70520878 59.30421183 11.125 66.125 C7.59102186 80.46129276 1.24425142 92.18346333 -10.5 101.3125 C-11.1084375 101.86164063 -11.716875 102.41078125 -12.34375 102.9765625 C-16.79782495 105.73615241 -22.46490096 104.89300292 -27.5 104.3125 C-30.29324931 103.26503151 -32.08446181 102.11010982 -34.5 100.3125 C-34.5 99.6525 -34.5 98.9925 -34.5 98.3125 C-35.20125 98.209375 -35.9025 98.10625 -36.625 98 C-39.89137647 97.21890997 -42.5471852 95.89191257 -45.5 94.3125 C-45.5 94.9725 -45.5 95.6325 -45.5 96.3125 C-44.79359375 96.53421875 -44.0871875 96.7559375 -43.359375 96.984375 C-26.12778279 104.98812002 -17.72749644 127.48924906 -11.0859375 143.78125 C-7.85263707 150.98051992 -3.68845855 157.63668233 0.5 164.3125 C0.92313477 165.00553223 1.34626953 165.69856445 1.78222656 166.41259766 C6.96117854 174.90977556 6.96117854 174.90977556 15.33203125 179.6328125 C18.06616362 180.16093002 20.80747082 180.48011129 23.57421875 180.78515625 C32.88643 182.0360503 39.6445305 186.96221516 46.25 193.3125 C46.77625977 193.81064209 47.30251953 194.30878418 47.84472656 194.82202148 C50.21414655 197.25398333 51.43412056 198.9734405 52.0859375 202.328125 C50.31179924 211.36440254 40.0277187 219.22352976 32.84228516 224.41235352 C27.70088659 227.74281697 23.73729869 228.03116407 17.828125 226.98046875 C15.5 226.3125 15.5 226.3125 13.5 225.3125 C13.22929687 224.54679688 12.95859375 223.78109375 12.6796875 222.9921875 C11.22101409 219.67877705 9.54985487 218.52916179 6.625 216.4375 C2.11553258 212.93158458 -0.52121941 210.70917435 -2.5 205.3125 C-2.79368206 201.2870304 -2.73804097 197.33935976 -2.5 193.3125 C-3.07927246 193.03341797 -3.65854492 192.75433594 -4.25537109 192.46679688 C-6.40200328 191.36289466 -8.39016018 190.15713868 -10.4140625 188.84375 C-11.16574707 188.36019043 -11.91743164 187.87663086 -12.69189453 187.37841797 C-13.49481934 186.86166504 -14.29774414 186.34491211 -15.125 185.8125 C-22.24191107 181.27214274 -29.45468595 177.01676366 -36.85888672 172.96508789 C-87.17482417 145.42425521 -87.17482417 145.42425521 -95.3984375 119.453125 C-97.20167129 113.1547486 -97.60083321 107.48548985 -95.4375 101.25 C-94.32915661 99.56960841 -93.19458037 97.90448463 -91.98828125 96.29296875 C-84.01403613 85.48741862 -79.41567201 73.65695427 -76.51953125 60.6171875 C-74.50932027 54.10133123 -70.75369507 50.30987669 -65.5 46.3125 C-61.7315634 44.4282817 -57.60368592 44.8088398 -53.5 45.3125 C-46.922536 47.51447929 -42.45041766 50.65023469 -38.5 56.3125 C-40.42237326 49.42399582 -43.11272811 46.06951251 -49.25 42.5625 C-53.28311873 39.9754666 -53.28311873 39.9754666 -54.1875 37.2109375 C-54.2542848 34.78164045 -53.99975198 32.68936919 -53.5 30.3125 C-53.37238281 29.65121094 -53.24476563 28.98992187 -53.11328125 28.30859375 C-50.32160256 18.50801962 -41.45220162 11.65661311 -33.046875 6.7109375 C-22.50729132 0.92386548 -11.84008505 0.14065939 0 0 Z " fill="#EEEEEE" transform="translate(411.5,139.6875)"/>
<path d="M0 0 C-0.268125 0.515625 -0.53625 1.03125 -0.8125 1.5625 C-1.204375 2.366875 -1.59625 3.17125 -2 4 C-2.515625 5.051875 -3.03125 6.10375 -3.5625 7.1875 C-5.10791511 10.77534814 -5.5089637 14.20733119 -5.7890625 18.08203125 C-6 20 -6 20 -7 22 C-8.65307552 22.4309804 -10.323952 22.79444609 -12 23.125 C-20.14846792 25.24148517 -25.31944564 29.94780379 -29.56640625 37.10546875 C-32.24541863 42.10190902 -33.68494704 47.21261005 -35.0625 52.6875 C-38.51103067 66.33672643 -38.51103067 66.33672643 -43.68359375 70.28515625 C-44.26238281 70.54167969 -44.84117187 70.79820312 -45.4375 71.0625 C-46.13875 71.37832031 -46.84 71.69414062 -47.5625 72.01953125 C-51.44785234 73.58238932 -55.37318672 75.0378077 -59.29296875 76.51171875 C-64.93191953 78.77561785 -70.38392958 81.4054713 -75.859375 84.03515625 C-78.62626832 85.36131394 -81.409545 86.6332943 -84.21875 87.8671875 C-90.12238045 90.47273942 -95.93286268 93.27041112 -101.75 96.0625 C-102.85988281 96.59166016 -103.96976563 97.12082031 -105.11328125 97.66601562 C-106.72009766 98.43655273 -106.72009766 98.43655273 -108.359375 99.22265625 C-109.32327148 99.68422119 -110.28716797 100.14578613 -111.28027344 100.62133789 C-113.96476888 101.9255423 -113.96476888 101.9255423 -116.22753906 103.42358398 C-118.6932895 104.825605 -121.01851175 105.83866915 -123.65429688 106.86230469 C-129.11953145 108.9940138 -134.30684429 111.54299395 -139.53125 114.203125 C-140.48898315 114.6857782 -141.44671631 115.1684314 -142.43347168 115.66571045 C-145.45763963 117.18990048 -148.47912514 118.71929472 -151.5 120.25 C-155.50814057 122.28058917 -159.51886397 124.30594029 -163.53125 126.328125 C-164.91237976 127.03113739 -164.91237976 127.03113739 -166.32141113 127.74835205 C-167.16989624 128.17589783 -168.01838135 128.6034436 -168.89257812 129.04394531 C-169.63963013 129.42270813 -170.38668213 129.80147095 -171.15637207 130.19171143 C-173 131 -173 131 -175 131 C-175 131.66 -175 132.32 -175 133 C-176.41152344 133.58007812 -176.41152344 133.58007812 -177.8515625 134.171875 C-216.37658155 150.72393626 -253.89288393 176.06073628 -285.41113281 203.62158203 C-287.11168846 205.09689506 -288.83083972 206.54808022 -290.5546875 207.99609375 C-297.07464421 213.4894371 -303.28546006 219.09062414 -309.20703125 225.234375 C-311 227 -311 227 -312 227 C-312.24705061 219.44595265 -310.26460151 213.12594607 -308 206 C-307.76442383 205.25621094 -307.52884766 204.51242187 -307.28613281 203.74609375 C-306.53385331 201.38993467 -305.76986701 199.0379681 -305 196.6875 C-304.7632959 195.95942139 -304.5265918 195.23134277 -304.28271484 194.48120117 C-297.04177072 172.79518716 -283.83888929 152.99120848 -268.25390625 136.40625 C-266.32036463 134.34201839 -264.49806116 132.23339397 -262.6875 130.0625 C-252.8554526 118.83890993 -240.98670987 109.77746021 -229 101 C-228.44376953 100.59185059 -227.88753906 100.18370117 -227.31445312 99.76318359 C-176.72648598 62.97048492 -116.7720726 35.89304193 -57.4375 16.9375 C-55.06888595 16.17715908 -52.7006324 15.41570562 -50.33248901 14.65390015 C-48.78409832 14.15582392 -47.23553656 13.65827918 -45.6867981 13.1612854 C-40.75454748 11.5756662 -35.83675512 9.95100543 -30.92578125 8.30078125 C-25.56247483 6.50464218 -20.18769041 4.80511684 -14.75 3.25 C-3.50621118 0 -3.50621118 0 0 0 Z " fill="#91D100" transform="translate(354,156)"/>
<path d="M0 0 C2.98577503 1.34294685 5.03689051 2.8503686 7.375 5.125 C20.97572568 17.256746 36.21952666 21.58310731 54 22 C54 21.34 54 20.68 54 20 C58.0625 19.1875 62.125 18.375 66.1875 17.5625 C67.33798828 17.33240234 68.48847656 17.10230469 69.67382812 16.86523438 C71.82836914 16.43432617 73.98291016 16.00341797 76.13745117 15.57250977 C77.8709184 15.22581632 79.60014419 14.85516158 81.31860352 14.44042969 C85.16457559 13.80871398 88.96738862 13.79687864 92.859375 13.76171875 C93.72201965 13.753647 94.58466431 13.74557526 95.47344971 13.73725891 C97.30242935 13.72344981 99.13143442 13.71271351 100.96044922 13.70483398 C102.79874427 13.69341101 104.63700876 13.6731165 106.47509766 13.64331055 C123.13126747 13.37378836 138.44975296 15.64951091 154 22 C154.91910156 22.34546875 155.83820313 22.6909375 156.78515625 23.046875 C159.34476857 25.30402872 159.39348447 25.83921931 159.69921875 29.10546875 C159.73136927 30.79917855 159.72513898 32.49390328 159.6875 34.1875 C159.67533447 35.08227051 159.66316895 35.97704102 159.65063477 36.89892578 C159.15920569 49.90271737 153.3500606 60.49510151 147.53515625 71.84375 C145.43703693 76.1574406 144.06550912 80.33333979 143 85 C142.73445312 86.09828125 142.46890625 87.1965625 142.1953125 88.328125 C139.57558939 100.45370056 139.28045592 112.62894979 139 125 C128.65036887 126.6881156 118.62155302 127.29054229 108.14672852 127.20581055 C105.80408876 127.18743402 103.46184546 127.18530277 101.11914062 127.18554688 C88.58714527 127.15978313 76.99552491 126.86240576 65.0625 122.625 C64.15693359 122.32078125 63.25136719 122.0165625 62.31835938 121.703125 C57.87587795 120.17551199 53.9728187 118.5431787 50 116 C48.47100159 115.3842259 46.92859665 114.80077339 45.375 114.25 C43.58082932 113.50601006 41.78929217 112.7556474 40 112 C38.53820312 111.46826172 38.53820312 111.46826172 37.046875 110.92578125 C32.83620913 108.96117913 29.84118303 107.21938185 28.13037109 102.70556641 C26.12655818 95.23830747 24.36002906 86.76167798 25 79 C27.58984375 76.83203125 27.58984375 76.83203125 30.9375 74.8125 C35.14705416 72.55182018 35.14705416 72.55182018 38 69 C36.54980469 69.05220703 36.54980469 69.05220703 35.0703125 69.10546875 C19.6594166 69.42589332 11.82328999 66.17222258 0.73828125 55.68017578 C-9.03566495 46.23294295 -9.03566495 46.23294295 -12 42 C-11.89556936 38.77493605 -10.12523208 36.13566401 -8.625 33.3125 C-4.26080745 24.60934145 -2.6295478 17.47444327 -2.37792969 7.76342773 C-2.19981376 2.19981376 -2.19981376 2.19981376 0 0 Z " fill="#EFEFEF" transform="translate(432,195)"/>
<path d="M0 0 C4.35834901 0.51274694 7.95893419 1.34212685 12 3 C17.80528449 4.31598893 23.6420524 4.19200053 29.5625 4.1875 C30.66424561 4.18669434 31.76599121 4.18588867 32.90112305 4.18505859 C46.60394328 4.08457059 60.12202287 2.84689265 73.6015625 0.375 C76.78791435 -0.12319182 79.78348104 -0.14620541 83 0 C82.85304688 0.5775 82.70609375 1.155 82.5546875 1.75 C80.49236053 10.11549531 79.26901356 18.60950915 78.05322266 27.13085938 C77.87025635 28.39446289 77.87025635 28.39446289 77.68359375 29.68359375 C77.57587646 30.44212646 77.46815918 31.20065918 77.35717773 31.98217773 C77 34 77 34 76 37 C74.78819858 45.58790276 74.78969441 54.27786251 74.7265625 62.93359375 C74.71857698 63.97009913 74.71857698 63.97009913 74.71043015 65.02754402 C74.68396203 68.66963709 74.66448659 72.31169863 74.64990234 75.95385742 C74.63646539 78.9557882 74.60840045 81.95705489 74.56787109 84.95874023 C74.51862693 88.60897947 74.49379715 92.25860919 74.48667526 95.90916634 C74.47996905 97.29309871 74.46476294 98.67701771 74.44078445 100.06075859 C74.40921662 101.98875062 74.41209164 103.91721358 74.41650391 105.84545898 C74.40841705 106.94035141 74.4003302 108.03524384 74.39199829 109.16331482 C75.20454804 112.95433679 76.81834017 113.92354323 80 116 C81.53123608 116.91887159 83.08833304 117.79598372 84.66796875 118.62890625 C85.55307129 119.10150879 86.43817383 119.57411133 87.35009766 120.06103516 C88.28644043 120.55651855 89.2227832 121.05200195 90.1875 121.5625 C99.75883536 126.69495519 109.05720554 132.16185114 118.24267578 137.95361328 C122.17752724 140.29659374 125.42666901 141.37636396 130 142 C130 142.66 130 143.32 130 144 C130.83402344 144.11730469 131.66804687 144.23460937 132.52734375 144.35546875 C136.31624644 145.05869591 139.91109826 146.10757405 143.5625 147.3125 C144.20896484 147.51294922 144.85542969 147.71339844 145.52148438 147.91992188 C149.71546746 149.29800584 152.72475933 151.05165475 156 154 C155.875 156.3125 155.875 156.3125 155 159 C152.3125 160.6875 152.3125 160.6875 149 162 C148.15953125 162.34675781 147.3190625 162.69351563 146.453125 163.05078125 C129.62509186 167.67658674 109.96719021 163.16878823 93.0904541 160.6350708 C74.98898596 157.95873101 57.12616306 157.30871287 38.84155273 157.40258789 C37.34081207 157.40079781 37.34081207 157.40079781 35.80975342 157.39897156 C33.94911298 157.39862793 32.08835359 157.4151019 30.22808838 157.45246887 C24.32543783 157.44831348 19.94270075 156.30779325 15 153 C11.62578451 149.41489604 11.43637058 145.62840424 11.578125 140.88671875 C12.56018394 134.16688954 15.21905409 127.50303852 19.1484375 121.98046875 C22.31950437 116.52944684 21.50084621 110.10043395 21.375 104 C21.35920898 102.69724121 21.34341797 101.39448242 21.32714844 100.05224609 C21.02324689 82.94173302 19.0751921 66.31501951 11 51 C10.25 47.5 10.25 47.5 10 45 C9.34 45 8.68 45 8 45 C2.97905453 30.25469373 -0.81726799 15.70970701 0 0 Z " fill="#91D200" transform="translate(487,554)"/>
<path d="M0 0 C9.46274546 -1.2166387 17.35677523 1.47911836 25 7 C32.79624641 14.16501623 37.43379931 22.37018493 38.3359375 32.93359375 C38.58535435 39.58678815 38.37674326 45.88415004 35.75390625 52.10546875 C34.81587607 54.46269485 34.23095654 56.46339253 34 59 C35.06542613 61.25292079 35.06542613 61.25292079 36.75 63.3125 C42.55697921 71.39646178 44.93762544 80.09810708 44 90 C43.00631182 95.14424729 41.58530363 98.75881168 37.390625 102.04296875 C35.48034143 103.22805208 33.53661857 104.36150042 31.55859375 105.4296875 C28.95297735 107.0288597 27.63815072 108.45176555 26 111 C26.49886719 110.71125 26.99773438 110.4225 27.51171875 110.125 C34.14163656 106.6969635 40.61167781 105.57368298 48 107 C52.76466902 109.8764781 55.31830047 113.75433174 57 119 C59.35343504 137.95134529 50.46472626 154.11186187 39.734375 168.98046875 C39.16203125 169.64691406 38.5896875 170.31335938 38 171 C37.34 171 36.68 171 36 171 C35.93683594 171.57105469 35.87367188 172.14210938 35.80859375 172.73046875 C34.02465263 184.54203677 27.32932249 195.54002147 19 204 C13.57419339 207.96945263 8.4945508 207.72881493 2 207 C-1.5809113 206.05658711 -4.71735902 204.69811359 -8 203 C-8.68320312 202.70738281 -9.36640625 202.41476562 -10.0703125 202.11328125 C-13.49804599 200.29902064 -14.74432028 198.69581409 -16.09375 195.0234375 C-16.97369257 191.34886252 -17.54574917 187.75048121 -18 184 C-18.16113281 182.83726562 -18.32226562 181.67453125 -18.48828125 180.4765625 C-18.86604069 175.63898642 -19.07031963 172.40560048 -16.0546875 168.4453125 C-9.7336445 162.73401642 -5.30788564 161.78959123 2.97070312 161.48242188 C7.07712696 161.28108935 10.25524606 160.66060004 14 159 C14.99 159 15.98 159 17 159 C15.44203624 151.51852817 12.44961375 146.33970981 7.7421875 140.34765625 C4.71051998 136.2623823 4.81718385 132.44775429 4.8125 127.5625 C4.79832031 126.24378906 4.78414062 124.92507813 4.76953125 123.56640625 C4.98009385 120.3080393 5.13786563 118.61688651 7 116 C8.485 115.01 8.485 115.01 10 114 C9.34773437 113.84144531 8.69546875 113.68289063 8.0234375 113.51953125 C2.24926143 111.97804767 -2.08981749 110.64994676 -6 106 C-5.79531987 100.1227564 -3.65787185 95.63562075 -1.0625 90.5 C2.87663149 82.62173702 5.28417613 76.0559516 5.125 67.0625 C5.11597656 66.37865234 5.10695313 65.69480469 5.09765625 64.99023438 C5.07438958 63.32666713 5.03853167 61.66328369 5 60 C5.77085937 59.64808594 6.54171875 59.29617187 7.3359375 58.93359375 C8.33882812 58.43988281 9.34171875 57.94617188 10.375 57.4375 C11.37273438 56.96183594 12.37046875 56.48617187 13.3984375 55.99609375 C16.90153005 53.30828551 17.23422262 51.29910106 18 47 C18.66448544 38.86221077 18.77943352 31.33153269 15 24 C14.36191406 22.60007813 14.36191406 22.60007813 13.7109375 21.171875 C8.70557997 10.03107024 8.70557997 10.03107024 0 2 C0 1.34 0 0.68 0 0 Z " fill="#ECECEC" transform="translate(597,166)"/>
<path d="M0 0 C0.03867187 0.99966797 0.03867187 0.99966797 0.078125 2.01953125 C0.52396598 9.2644471 2.21898532 15.31262981 5 22 C3.91138672 22.59554688 3.91138672 22.59554688 2.80078125 23.203125 C-0.18241824 25.11703262 -2.35932049 27.19774216 -4.8125 29.75 C-7.58894652 32.63061988 -10.39979111 35.36750641 -13.4453125 37.95703125 C-19.30287898 43.03014526 -24.71480727 48.56585283 -30.18188477 54.05151367 C-32.05829475 55.93328274 -33.93998969 57.80964738 -35.82226562 59.68554688 C-41.76104598 65.62073781 -47.59156319 71.57043542 -53 78 C-53.94855057 79.08375887 -54.89903015 80.16583285 -55.8515625 81.24609375 C-88.83354296 118.04053413 -88.83354296 118.04053413 -105 163 C-107.47171294 159.29243059 -107.86638278 155.81264326 -108.5 151.5 C-108.62890625 150.65993408 -108.7578125 149.81986816 -108.890625 148.9543457 C-109.7707598 143.04589081 -110.42620889 137.13241165 -111 131.1875 C-113.10599457 110.01150967 -119.398646 83.601354 -135 68 C-133.53174272 64.15596705 -131.689783 62.94336825 -128.09765625 61.0546875 C-126.63875977 60.27544922 -126.63875977 60.27544922 -125.15039062 59.48046875 C-124.13138672 58.95066406 -123.11238281 58.42085938 -122.0625 57.875 C-120.05287644 56.81085648 -118.04374008 55.74579222 -116.03515625 54.6796875 C-115.1419165 54.21288574 -114.24867676 53.74608398 -113.32836914 53.26513672 C-110.83945811 51.95808112 -110.83945811 51.95808112 -108 50 C-106.68 50 -105.36 50 -104 50 C-104 49.34 -104 48.68 -104 48 C-94.56951716 42.95795967 -85.11041758 37.99604764 -75.52734375 33.25 C-71.98925928 31.49758944 -68.46418819 29.72046794 -64.94140625 27.9375 C-63.87801025 27.4010083 -62.81461426 26.8645166 -61.71899414 26.31176758 C-59.61899407 25.25213159 -57.52045084 24.18960203 -55.42358398 23.1237793 C-51.19771012 20.99705058 -47.02761277 18.93044836 -42.578125 17.3125 C-38.75131933 15.90878089 -35.53973562 14.09886758 -32.078125 11.98828125 C-30 11 -30 11 -26 11 C-26 10.34 -26 9.68 -26 9 C-23.29269941 7.87246056 -20.58422359 6.74790188 -17.875 5.625 C-16.73417969 5.14933594 -16.73417969 5.14933594 -15.5703125 4.6640625 C-4.29882812 0 -4.29882812 0 0 0 Z " fill="#5B8500" transform="translate(299,243)"/>
<path d="M0 0 C0.33 1.32 0.66 2.64 1 4 C0.34 4 -0.32 4 -1 4 C-1.14695312 4.94746094 -1.14695312 4.94746094 -1.296875 5.9140625 C-2.17057592 11.14120421 -3.2977401 16.12660702 -4.875 21.1875 C-9.74044171 38.21654597 -11.37757557 54.91128154 -11.375 72.5625 C-11.37681274 73.36606934 -11.37862549 74.16963867 -11.38049316 74.99755859 C-11.37754468 86.53912181 -10.80643867 97.8972734 -8.28588867 109.203125 C-8 112 -8 112 -8.92456055 113.88696289 C-9.40707275 114.4102417 -9.88958496 114.93352051 -10.38671875 115.47265625 C-10.91330078 116.06240234 -11.43988281 116.65214844 -11.98242188 117.25976562 C-12.82643555 118.15211914 -12.82643555 118.15211914 -13.6875 119.0625 C-14.77526853 120.26123898 -15.86251803 121.46044917 -16.94921875 122.66015625 C-17.4704834 123.22492676 -17.99174805 123.78969727 -18.52880859 124.37158203 C-20.45417335 126.50271096 -22.23839659 128.73263211 -24 131 C-28.96814799 130.5378467 -31.32102732 129.32276352 -35 126 C-36.59245521 124.01894224 -38.13090488 121.99375466 -39.625 119.9375 C-48.19964149 108.52826628 -57.71767914 100.12143956 -70 93 C-70.83015625 92.50757813 -71.6603125 92.01515625 -72.515625 91.5078125 C-77.55981452 88.74551824 -82.82935764 86.97409526 -88.3125 85.3125 C-88.97548096 85.10979492 -89.63846191 84.90708984 -90.3215332 84.69824219 C-103.9690715 80.78822165 -117.73341349 80.60356046 -131.8125 80.375 C-133.77670833 80.33673094 -135.74090148 80.29767436 -137.70507812 80.2578125 C-142.46992586 80.16280247 -147.23485163 80.07842554 -152 80 C-152 79.67 -152 79.34 -152 79 C-151.02877197 79.00112793 -150.05754395 79.00225586 -149.05688477 79.00341797 C-125.38968899 79.4923331 -125.38968899 79.4923331 -102.87890625 73.27734375 C-100 72 -100 72 -96 72 C-96 71.34 -96 70.68 -96 70 C-94.30810547 69.25169922 -94.30810547 69.25169922 -92.58203125 68.48828125 C-73.76466513 59.98019272 -56.82842427 49.20304142 -40.69482422 36.34521484 C-38.59214202 34.67627521 -36.4520132 33.05881917 -34.3125 31.4375 C-25.71004657 24.70951113 -17.34295451 17.60478053 -9.75 9.75 C-7.41266353 7.41266353 -4.90784483 5.31437005 -2.34765625 3.2265625 C-0.86020853 2.02079718 -0.86020853 2.02079718 0 0 Z " fill="#5B8600" transform="translate(425,388)"/>
<path d="M0 0 C1.44185669 0.01909424 1.44185669 0.01909424 2.9128418 0.03857422 C15.49698161 0.29498256 25.82906882 0.95406882 35.1875 10.3125 C36.69556017 18.12311354 36.37257543 26.39631924 36.1875 34.3125 C36.17493164 34.98748535 36.16236328 35.6624707 36.14941406 36.35791016 C35.27366114 75.91870817 35.27366114 75.91870817 25.1875 88.3125 C18.76895682 94.43929122 13.01737002 93.49573492 4.5 93.5 C2.59831055 93.51836914 2.59831055 93.51836914 0.65820312 93.53710938 C-14.45147235 93.56082943 -14.45147235 93.56082943 -18.44921875 89.75390625 C-19.63732615 87.62944655 -20.76886672 85.51249349 -21.8125 83.3125 C-22.35197266 82.18908203 -22.35197266 82.18908203 -22.90234375 81.04296875 C-29.10084487 66.18995664 -29.08292261 49.88267296 -29.0625 34.0625 C-29.06181519 33.29397705 -29.06113037 32.5254541 -29.0604248 31.73364258 C-29.00001381 11.16095422 -29.00001381 11.16095422 -26.53515625 7.32421875 C-18.59760272 0.99285252 -9.91893954 -0.19406051 0 0 Z " fill="#EEEEEE" transform="translate(501.8125,19.6875)"/>
<path d="M0 0 C4.69818911 1.58317235 4.69818911 1.58317235 6.36328125 3.8828125 C8.61935402 9.21197204 9.42079814 13.21402558 9 19 C7.35 18.67 5.7 18.34 4 18 C6.97373013 35.63482801 6.97373013 35.63482801 14 51 C14.43340352 54.0523991 14.48114743 56.95273291 14 60 C11.75 62.4375 11.75 62.4375 9 64 C8.40340576 64.35747314 7.80681152 64.71494629 7.19213867 65.08325195 C4.40465963 66.24897016 2.19353124 66.2426246 -0.82421875 66.23046875 C-1.93474609 66.22853516 -3.04527344 66.22660156 -4.18945312 66.22460938 C-5.34380859 66.21236328 -6.49816406 66.20011719 -7.6875 66.1875 C-8.85345703 66.18685547 -10.01941406 66.18621094 -11.22070312 66.18554688 C-19.85973635 66.14026365 -19.85973635 66.14026365 -21 65 C-22.83105416 64.75328329 -24.66500681 64.52797268 -26.5 64.3125 C-34.28356484 63.06156994 -39.29354484 59.97049957 -44.5625 54.1875 C-46.46500687 49.96889781 -46.67987947 46.55437335 -46 42 C-41.84673134 31.20150149 -31.53641574 23.92804221 -22 18 C-24.97 18 -27.94 18 -31 18 C-31.43489041 11.03305565 -29.92829375 7.47231421 -25.4453125 2.2109375 C-19.09404571 -2.87731613 -7.56395346 -1.24277901 0 0 Z " fill="#EBEBEB" transform="translate(415,664)"/>
<path d="M0 0 C2.98577503 1.34294685 5.03689051 2.8503686 7.375 5.125 C11.04463272 8.42144973 14.91739163 10.89043122 19.1875 13.3125 C19.78159668 13.64975098 20.37569336 13.98700195 20.98779297 14.33447266 C24.24714475 16.14177363 27.50595489 17.70371585 31 19 C30.236875 19.5775 29.47375 20.155 28.6875 20.75 C24.71679267 24.07431312 22.50968761 26.89553909 21.65625 32.09375 C21.13550647 40.11320031 24.37318084 44.69888442 29 51 C30.23185457 52.74810898 31.46112819 54.49804027 32.6875 56.25 C33.265 57.07113281 33.8425 57.89226562 34.4375 58.73828125 C43.82533039 72.32716574 45.10152568 85.73200225 45.51757812 101.77539062 C45.55173828 102.76087891 45.58589844 103.74636719 45.62109375 104.76171875 C45.6461499 105.64819092 45.67120605 106.53466309 45.69702148 107.44799805 C46.02865438 110.24135712 46.85111112 112.4433703 48 115 C43.6221102 113.66303964 39.74745185 111.97973445 35.75 109.75 C34.71359375 109.18796875 33.6771875 108.6259375 32.609375 108.046875 C27.70716097 104.20142567 27.4458535 97.78894949 26.375 91.9375 C26.2409375 91.24333984 26.106875 90.54917969 25.96875 89.83398438 C25.60802002 87.89598096 25.30217056 85.94799289 25 84 C24.84917969 83.09765625 24.69835937 82.1953125 24.54296875 81.265625 C25 79 25 79 27.58984375 76.83203125 C28.69457031 76.16558594 29.79929687 75.49914062 30.9375 74.8125 C35.14705416 72.55182018 35.14705416 72.55182018 38 69 C36.54980469 69.05220703 36.54980469 69.05220703 35.0703125 69.10546875 C19.6594166 69.42589332 11.82328999 66.17222258 0.73828125 55.68017578 C-9.03566495 46.23294295 -9.03566495 46.23294295 -12 42 C-11.89556936 38.77493605 -10.12523208 36.13566401 -8.625 33.3125 C-4.26080745 24.60934145 -2.6295478 17.47444327 -2.37792969 7.76342773 C-2.19981376 2.19981376 -2.19981376 2.19981376 0 0 Z " fill="#979797" transform="translate(432,195)"/>
<path d="M0 0 C0.33 0 0.66 0 1 0 C1.12060791 1.85794189 1.12060791 1.85794189 1.24365234 3.75341797 C1.54893658 8.43924144 1.85966731 13.12469176 2.171875 17.81005859 C2.30514961 19.82103147 2.43703262 21.83209716 2.56738281 23.84326172 C3.62121656 40.08040784 5.03697753 56.21229869 7.4375 72.3125 C7.69542268 74.079411 7.95323167 75.84633861 8.2109375 77.61328125 C8.34081055 78.49709473 8.47068359 79.3809082 8.60449219 80.29150391 C9.00599898 83.04108193 9.39900329 85.79174464 9.7890625 88.54296875 C9.98193848 89.90325195 9.98193848 89.90325195 10.17871094 91.29101562 C10.43216815 93.08004952 10.68542723 94.86911149 10.93847656 96.65820312 C11.76880644 102.49044021 12.67186113 108.30670271 13.66796875 114.11328125 C14.6989087 123.07639443 13.45742782 126.96723447 8.375 134.375 C7.27272317 136.04510168 6.17115377 137.71567048 5.0703125 139.38671875 C4.53954102 140.17997559 4.00876953 140.97323242 3.46191406 141.79052734 C1.63957792 144.54472608 -0.06713799 147.34614602 -1.75 150.1875 C-2.42289063 151.32251953 -2.42289063 151.32251953 -3.109375 152.48046875 C-3.40328125 152.98191406 -3.6971875 153.48335937 -4 154 C-6.75031587 153.85888117 -9.50015418 153.71228835 -12.25 153.5625 C-13.02730469 153.52318359 -13.80460937 153.48386719 -14.60546875 153.44335938 C-15.35957031 153.40146484 -16.11367188 153.35957031 -16.890625 153.31640625 C-17.92751465 153.26141968 -17.92751465 153.26141968 -18.98535156 153.20532227 C-21.06628329 152.99324476 -22.98572422 152.55491323 -25 152 C-23.64061837 143.02808124 -19.81466576 137.77425878 -13 132 C-8.4456626 129.02573884 -5.35715234 128.89904071 0 129 C-0.2261302 112.75974016 -3.68780264 98.731726 -10.38671875 83.9375 C-14.62065033 74.37618905 -14.52538347 69.17278319 -11.078125 59.42578125 C-9.29225966 53.75112943 -8.36588461 47.92936979 -7.36328125 42.07763672 C-6.88194479 39.3248321 -6.35394306 36.58185971 -5.82617188 33.83764648 C-4.56487262 27.2657386 -3.45728559 20.68185691 -2.47265625 14.0625 C-1.7464264 9.3570107 -0.88133487 4.67857553 0 0 Z " fill="#979797" transform="translate(525,397)"/>
<path d="M0 0 C1.7074998 1.28062485 3.38263741 2.6072711 5 4 C7.84979639 5.11680706 7.84979639 5.11680706 11 6 C12.1240625 6.43957031 13.248125 6.87914062 14.40625 7.33203125 C20.05661143 9.46848309 25.86871849 11.01981889 31.6875 12.625 C32.80189453 12.93695313 33.91628906 13.24890625 35.06445312 13.5703125 C46.62912005 16.78541463 58.70033744 19.73919592 70 14 C72.59343241 12.2592029 75.08734851 10.45372605 77.54296875 8.5234375 C80.43101784 6.73275524 82.63869021 6.35543876 86 6 C86.78761719 5.89816406 87.57523438 5.79632813 88.38671875 5.69140625 C95.77613726 5.27739808 101.10079142 7.61773077 107 12 C109.14089447 14.31262398 111.10935428 16.71645587 113.09765625 19.16015625 C115.24406062 21.2360422 116.19792979 21.56740394 119.125 21.75 C124.18790414 22.07663898 125.52661575 23.43978115 129 27 C129 27.66 129 28.32 129 29 C129.56203125 28.83628906 130.1240625 28.67257813 130.703125 28.50390625 C133.13059056 27.97135003 135.26889681 27.90101319 137.75 27.9375 C138.54921875 27.94652344 139.3484375 27.95554688 140.171875 27.96484375 C140.77515625 27.97644531 141.3784375 27.98804688 142 28 C142.33 29.98 142.66 31.96 143 34 C129.29144134 36.02396834 129.29144134 36.02396834 124.1328125 33.71875 C122.52590011 32.51751713 120.9550932 31.26663067 119.421875 29.97265625 C115.90921274 27.11153618 112.0187805 25.35963727 107.9453125 23.421875 C106.05721156 22.51037799 104.193523 21.5453097 102.3671875 20.515625 C101.54476562 20.05671875 100.72234375 19.5978125 99.875 19.125 C99.17117188 18.71507812 98.46734375 18.30515625 97.7421875 17.8828125 C88.60886805 14.9424561 79.6286995 18.1969292 70.83007812 20.8671875 C58.17233064 24.47142746 47.68222659 23.0800616 35.1875 19.5 C23.59728485 16.38417798 13.6593394 14.62893793 1.71875 16.51953125 C-13.89203904 18.53647143 -29.49761095 17.63658594 -43.88671875 11.17578125 C-49.09841403 9.20749984 -54.48565516 8.59590501 -60 8 C-55.69227748 3.63820565 -52.60467266 0.86734528 -46.3125 0.375 C-39.85906867 0.52957321 -35.83687334 4.07725135 -31 8 C-30.01 8.66 -29.02 9.32 -28 10 C-28.66 9.236875 -29.32 8.47375 -30 7.6875 C-32 5 -32 5 -32 2 C-30.57421875 0.6484375 -30.57421875 0.6484375 -28.6875 -0.625 C-28.07261719 -1.05039063 -27.45773437 -1.47578125 -26.82421875 -1.9140625 C-19.27637524 -6.40721131 -7.64872788 -3.22349345 0 0 Z " fill="#8BC900" transform="translate(464,127)"/>
<path d="M0 0 C2.21875 1.93359375 2.21875 1.93359375 4.5 4.4375 C8.25727457 8.34528854 12.07091739 11.83126843 16.375 15.125 C16.91753418 15.54628174 17.46006836 15.96756348 18.01904297 16.40161133 C20.7442749 18.47029182 23.3706733 20.20156428 26.390625 21.84375 C31.21731136 24.5019251 34.33187642 26.2461756 36.34375 31.52734375 C37.11339941 34.95351135 37.50010811 38.39230365 37.79980469 41.88769531 C37.99659391 43.96406159 38.29308603 45.99728798 38.6328125 48.0546875 C39.73603216 54.99519597 40.21599423 61.06883289 39 68 C31.25 67.125 31.25 67.125 29 66 C28.3296875 66.04640625 27.659375 66.0928125 26.96875 66.140625 C23.9451124 66.27458363 21.8673732 66.01745501 19 65 C14.90242182 61.17684106 11.9708344 56.72589359 9 52 C8.60393555 51.38108887 8.20787109 50.76217773 7.79980469 50.12451172 C1.6107823 40.29413636 -2.49807476 30.01273412 -6.27294922 19.06298828 C-7.48343579 15.62826313 -8.87099714 12.26991554 -10.2734375 8.91015625 C-11.01472861 6.961278 -11.53648969 5.03126577 -12 3 C-4.76298437 -1.68277482 -4.76298437 -1.68277482 0 0 Z " fill="#90D000" transform="translate(408,250)"/>
<path d="M0 0 C0.66 0 1.32 0 2 0 C3.18033439 1.41640127 4.35703738 2.83604653 5.51171875 4.2734375 C10.12041252 9.62000612 14.94748906 13.60741789 22.1628418 14.30639648 C25.32369651 14.36422365 28.48384278 14.41679235 31.64526367 14.42553711 C33.66515836 14.43736913 35.68192673 14.48653573 37.70117188 14.53710938 C49.01010705 14.5988455 56.45322155 11.93526693 64.625 4.13671875 C66 3 66 3 68 3 C69.09945892 13.01292948 69.10055982 22.94401799 69 33 C66.48743702 34.35129438 63.96682058 35.68074204 61.4375 37 C60.73302734 37.3815625 60.02855469 37.763125 59.30273438 38.15625 C58.25375977 38.69765625 58.25375977 38.69765625 57.18359375 39.25 C56.54993896 39.58515625 55.91628418 39.9203125 55.26342773 40.265625 C47.99770488 42.62300763 40.61637437 39.83032124 33.57617188 37.85668945 C31.64054796 37.31683639 29.69990245 36.79923995 27.7578125 36.28320312 C16.64032097 33.21096244 7.92293612 29.62772172 0.62109375 20.40234375 C-2.49692578 13.85825939 -1.11820922 6.96228074 0 0 Z " fill="#E9E9E9" transform="translate(470,103)"/>
<path d="M0 0 C4.35834901 0.51274694 7.95893419 1.34212685 12 3 C17.80528449 4.31598893 23.6420524 4.19200053 29.5625 4.1875 C30.66424561 4.18669434 31.76599121 4.18588867 32.90112305 4.18505859 C46.60394328 4.08457059 60.12202287 2.84689265 73.6015625 0.375 C76.78791435 -0.12319182 79.78348104 -0.14620541 83 0 C82.85691406 0.55171875 82.71382812 1.1034375 82.56640625 1.671875 C81.9544691 4.18714769 81.43873189 6.71042508 80.9375 9.25 C80.76089844 10.14203125 80.58429688 11.0340625 80.40234375 11.953125 C80.26957031 12.62859375 80.13679687 13.3040625 80 14 C76.7324027 14.82588624 73.46044997 15.63311216 70.1875 16.4375 C69.27806641 16.66759766 68.36863281 16.89769531 67.43164062 17.13476562 C56.34848665 19.83701871 45.40416455 20.18662373 34.04760742 20.18530273 C31.93713518 20.18750038 29.82717809 20.2057645 27.71679688 20.22460938 C8.41228777 20.30390903 8.41228777 20.30390903 1 16 C-0.2385234 12.62933504 -0.10114877 9.30568716 -0.0625 5.75 C-0.04896484 4.13351562 -0.04896484 4.13351562 -0.03515625 2.484375 C-0.02355469 1.66453125 -0.01195312 0.8446875 0 0 Z " fill="#8FCF00" transform="translate(487,554)"/>
<path d="M0 0 C-0.33 4.62 -0.66 9.24 -1 14 C-1.495 13.01 -1.495 13.01 -2 12 C-3.32451172 12.30744141 -3.32451172 12.30744141 -4.67578125 12.62109375 C-5.87589844 12.89050781 -7.07601562 13.15992188 -8.3125 13.4375 C-9.48425781 13.70433594 -10.65601563 13.97117187 -11.86328125 14.24609375 C-22.16840903 16.27119619 -32.62998819 16.18634164 -43.08862305 16.18530273 C-45.56120796 16.18749885 -48.03335236 16.2057465 -50.50585938 16.22460938 C-58.60804714 16.25240157 -66.09663159 16.03000224 -74 14 C-74.33 15.32 -74.66 16.64 -75 18 C-75.53251766 16.08654673 -76.05059483 14.1690705 -76.5625 12.25 C-76.85253906 11.18265625 -77.14257812 10.1153125 -77.44140625 9.015625 C-77.97098494 6.15664073 -77.98370862 4.68402617 -77 2 C-76.175 2.309375 -75.35 2.61875 -74.5 2.9375 C-65.74009119 5.59675803 -56.63120869 5.20037818 -47.5625 5.1875 C-46.84857086 5.18722809 -46.13464172 5.18695618 -45.39907837 5.18667603 C-31.65213012 5.16254604 -18.3397942 4.72544648 -5.1015625 0.5859375 C-3 0 -3 0 0 0 Z " fill="#6A9B00" transform="translate(566,568)"/>
<path d="M0 0 C0.99 0.33 1.98 0.66 3 1 C3 1.66 3 2.32 3 3 C8.86343206 3.05043312 14.72673075 3.086193 20.59033203 3.10986328 C22.57407843 3.11975807 24.55781093 3.13327708 26.54150391 3.15087891 C29.43655888 3.1758743 32.33141723 3.18664726 35.2265625 3.1953125 C36.49990952 3.21079636 36.49990952 3.21079636 37.79898071 3.22659302 C48.32885945 3.22840213 58.37886993 1.96555728 69 1 C68.67 22.45 68.34 43.9 68 66 C67.67 66 67.34 66 67 66 C66.67 47.85 66.34 29.7 66 11 C61.38 11.66 56.76 12.32 52 13 C48.09750975 13.21076223 44.25286144 13.36691429 40.3515625 13.4140625 C39.32815765 13.43342865 38.30475281 13.4527948 37.25033569 13.4727478 C34.04197019 13.53162676 30.83356699 13.57855512 27.625 13.625 C25.42446515 13.66326453 23.22394391 13.70232089 21.0234375 13.7421875 C15.68241429 13.83725018 10.3413062 13.92255342 5 14 C4.67 12.02 4.34 10.04 4 8 C3.34 8 2.68 8 2 8 C1.34 5.36 0.68 2.72 0 0 Z " fill="#679700" transform="translate(493,591)"/>
<path d="M0 0 C0.33 0.99 0.66 1.98 1 3 C3.56966474 3.8685347 5.99043648 4.53797604 8.625 5.125 C9.67494141 5.37830078 9.67494141 5.37830078 10.74609375 5.63671875 C15.14373961 6.67289876 19.51966691 7.42378918 24 8 C24.06058594 9.25296875 24.12117187 10.5059375 24.18359375 11.796875 C24.26802256 13.44792724 24.35266939 15.09896835 24.4375 16.75 C24.47681641 17.575 24.51613281 18.4 24.55664062 19.25 C24.59853516 20.04921875 24.64042969 20.8484375 24.68359375 21.671875 C24.72025146 22.4050293 24.75690918 23.13818359 24.79467773 23.89355469 C25.00114785 26.01177605 25.43132086 27.9519456 26 30 C22.99900412 30.10890711 20.00203622 30.18773555 17 30.25 C15.74123047 30.30027344 15.74123047 30.30027344 14.45703125 30.3515625 C8.43795172 30.44488156 4.03044484 29.38907727 -1 26 C-4.41801688 22.36835706 -4.49368548 18.56953881 -4.37109375 13.78125 C-3.72148173 8.91257888 -1.91517264 4.49723575 0 0 Z " fill="#679700" transform="translate(503,681)"/>
<path d="M0 0 C7.47536439 2.07720246 15.11144262 2.18080517 22.8125 2.1875 C23.70767334 2.18830566 24.60284668 2.18911133 25.52514648 2.18994141 C30.44879767 2.14863946 35.12553825 1.75301237 40 1 C51.97040561 0.05956409 62.26382846 2.14109321 73.74438477 5.36816406 C87.67081124 9.26919141 97.86657306 8.21264682 111.60180664 4.13476562 C118.61248272 2.11024732 125.53658106 0.58397381 132.671875 2.84765625 C133.35765625 3.24855469 134.0434375 3.64945313 134.75 4.0625 C135.56726563 4.51882812 136.38453125 4.97515625 137.2265625 5.4453125 C138.14179687 5.95835937 139.05703125 6.47140625 140 7 C141.76018004 7.85426345 143.52054617 8.70819183 145.28564453 9.55224609 C151.36825406 12.47971386 156.84678286 15.63096808 162 20 C161.67 21.32 161.34 22.64 161 24 C160.45214844 23.5875 159.90429688 23.175 159.33984375 22.75 C152.98449278 18.120411 146.38118252 14.40028067 139.41796875 10.796875 C136 9 136 9 133.50390625 7.296875 C126.25817895 3.5440178 116.03004965 5.44297763 108.51831055 7.79760742 C107.81101807 8.02939697 107.10372559 8.26118652 106.375 8.5 C92.72119962 12.87737864 82.36429215 10.80597208 68.78222656 7.15087891 C60.50987353 4.97194164 52.36077571 3.21307476 44 6 C41.93010227 6.09523794 39.85724277 6.13073105 37.78515625 6.1328125 C36.54056641 6.13410156 35.29597656 6.13539063 34.01367188 6.13671875 C32.70978516 6.13285156 31.40589844 6.12898437 30.0625 6.125 C28.79341797 6.12886719 27.52433594 6.13273438 26.21679688 6.13671875 C2.49482267 6.11237604 2.49482267 6.11237604 -5.671875 0.94140625 C-9.10799874 -0.44803305 -12.59156337 -0.46987195 -16.25 -0.625 C-16.99507813 -0.66367188 -17.74015625 -0.70234375 -18.5078125 -0.7421875 C-20.3381524 -0.83605108 -22.16904143 -0.91909718 -24 -1 C-24 -1.33 -24 -1.66 -24 -2 C-21.79245484 -2.19656224 -19.58390461 -2.38185459 -17.375 -2.5625 C-16.14523437 -2.66691406 -14.91546875 -2.77132812 -13.6484375 -2.87890625 C-8.43392376 -3.05197898 -4.59462062 -2.39477196 0 0 Z " fill="#323B1F" transform="translate(429,141)"/>
<path d="M0 0 C0.99263429 9.35912329 1.10731538 18.60394198 1 28 C0.67 28 0.34 28 0 28 C-0.33 23.38 -0.66 18.76 -1 14 C-2.19625 14.61875 -3.3925 15.2375 -4.625 15.875 C-13.16544096 20.29246946 -20.53031353 20.27190189 -30 20 C-31.13695312 19.99355469 -32.27390625 19.98710938 -33.4453125 19.98046875 C-43.46232733 19.65461405 -51.78453424 16.36847697 -59.125 9.4375 C-61.49995421 6.83718517 -63.05936216 4.4490054 -64 1 C-63.22076172 1.59748047 -63.22076172 1.59748047 -62.42578125 2.20703125 C-53.29534577 9.1434619 -48.11680634 11.24928925 -36.58105469 11.35009766 C-35.20783388 11.36652991 -33.83469398 11.39364897 -32.46191406 11.43212891 C-21.17082292 11.74652975 -13.59179036 10.11496095 -5 2.6875 C-4.46375 2.17574219 -3.9275 1.66398437 -3.375 1.13671875 C-2 0 -2 0 0 0 Z " fill="#969696" transform="translate(538,106)"/>
<path d="M0 0 C1.32 0 2.64 0 4 0 C4 0.66 4 1.32 4 2 C5.25103516 2.17595703 5.25103516 2.17595703 6.52734375 2.35546875 C10.31624644 3.05869591 13.91109826 4.10757405 17.5625 5.3125 C18.20896484 5.51294922 18.85542969 5.71339844 19.52148438 5.91992188 C23.71546746 7.29800584 26.72475933 9.05165475 30 12 C29.875 14.3125 29.875 14.3125 29 17 C23.39904926 20.51687605 17.56138116 22.25718617 10.97265625 22.23046875 C9.85052734 22.22853516 8.72839844 22.22660156 7.57226562 22.22460938 C5.83493164 22.20624023 5.83493164 22.20624023 4.0625 22.1875 C2.90814453 22.18685547 1.75378906 22.18621094 0.56445312 22.18554688 C-5.05418386 22.15653498 -10.46766665 22.00661087 -16 21 C-16 20.67 -16 20.34 -16 20 C-15.40985107 20.02094727 -14.81970215 20.04189453 -14.21166992 20.06347656 C-11.53712001 20.14663683 -8.86284185 20.19865691 -6.1875 20.25 C-5.25873047 20.28351562 -4.32996094 20.31703125 -3.37304688 20.3515625 C-2.48037109 20.36445312 -1.58769531 20.37734375 -0.66796875 20.390625 C0.15421143 20.41157227 0.9763916 20.43251953 1.82348633 20.45410156 C4.1705875 20.1825152 4.1705875 20.1825152 5.77124023 18.1027832 C7.79774031 14.6348227 7.25215586 11.97145474 7 8 C6.67 7.01 6.34 6.02 6 5 C5.01 4.67 4.02 4.34 3 4 C1.3125 1.9375 1.3125 1.9375 0 0 Z " fill="#659400" transform="translate(613,696)"/>
<path d="M0 0 C5.36095277 1.58921525 10.70843973 3.18972938 16 5 C15.01 5.495 15.01 5.495 14 6 C14.04125 6.969375 14.0825 7.93875 14.125 8.9375 C14.14348933 13.44889724 13.10517422 17.64837652 12 22 C11.34 22 10.68 22 10 22 C9.67 23.32 9.34 24.64 9 26 C8.52949219 25.45730469 8.05898438 24.91460937 7.57421875 24.35546875 C6.95160156 23.64003906 6.32898438 22.92460937 5.6875 22.1875 C5.07261719 21.47980469 4.45773437 20.77210938 3.82421875 20.04296875 C2.12755433 18.00002689 2.12755433 18.00002689 0.25 16.71875 C-1.83374281 13.85360364 -1.04103321 10.66324401 -0.6875 7.3125 C-0.62626953 6.61060547 -0.56503906 5.90871094 -0.50195312 5.18554688 C-0.34897376 3.4557033 -0.17637398 1.72761503 0 0 Z " fill="#979797" transform="translate(461,313)"/>
<path d="M0 0 C0.33 0 0.66 0 1 0 C1.3403125 1.36125 1.3403125 1.36125 1.6875 2.75 C4.31529979 11.79110137 7.64388873 19.05262257 14 26 C14 26.99 14 27.98 14 29 C12.02 29 10.04 29 8 29 C8.33 28.34 8.66 27.68 9 27 C8.02160156 26.76216797 8.02160156 26.76216797 7.0234375 26.51953125 C1.24926143 24.97804767 -3.08981749 23.64994676 -7 19 C-7.56273086 12.10654702 -3.16937753 5.90260219 0 0 Z " fill="#939393" transform="translate(598,253)"/>
<path d="M0 0 C7.47536439 2.07720246 15.11144262 2.18080517 22.8125 2.1875 C23.70767334 2.18830566 24.60284668 2.18911133 25.52514648 2.18994141 C30.45276297 2.14860619 35.11786345 1.70869724 40 1 C42.81430224 0.88705029 45.62155982 0.90400757 48.4375 0.9375 C49.16904297 0.94201172 49.90058594 0.94652344 50.65429688 0.95117188 C52.43623419 0.96281852 54.21812863 0.98074809 56 1 C56 1.66 56 2.32 56 3 C55.38511719 3.13277344 54.77023437 3.26554688 54.13671875 3.40234375 C52.92435547 3.66724609 52.92435547 3.66724609 51.6875 3.9375 C50.48673828 4.19853516 50.48673828 4.19853516 49.26171875 4.46484375 C46.854599 4.99886159 46.854599 4.99886159 44 6 C41.93010227 6.09523794 39.85724277 6.13073105 37.78515625 6.1328125 C36.54056641 6.13410156 35.29597656 6.13539063 34.01367188 6.13671875 C32.70978516 6.13285156 31.40589844 6.12898437 30.0625 6.125 C28.79341797 6.12886719 27.52433594 6.13273438 26.21679688 6.13671875 C2.49482267 6.11237604 2.49482267 6.11237604 -5.671875 0.94140625 C-9.10799874 -0.44803305 -12.59156337 -0.46987195 -16.25 -0.625 C-16.99507813 -0.66367188 -17.74015625 -0.70234375 -18.5078125 -0.7421875 C-20.3381524 -0.83605108 -22.16904143 -0.91909718 -24 -1 C-24 -1.33 -24 -1.66 -24 -2 C-21.79245484 -2.19656224 -19.58390461 -2.38185459 -17.375 -2.5625 C-16.14523437 -2.66691406 -14.91546875 -2.77132812 -13.6484375 -2.87890625 C-8.43392376 -3.05197898 -4.59462062 -2.39477196 0 0 Z " fill="#1E2314" transform="translate(429,141)"/>
<path d="M0 0 C4.80336309 0.11741554 8.73332047 0.3153872 12.5625 3.4375 C15 6 15 6 15 8 C15.56203125 7.83628906 16.1240625 7.67257813 16.703125 7.50390625 C19.13059056 6.97135003 21.26889681 6.90101319 23.75 6.9375 C24.54921875 6.94652344 25.3484375 6.95554688 26.171875 6.96484375 C26.77515625 6.97644531 27.3784375 6.98804688 28 7 C28.33 8.98 28.66 10.96 29 13 C13.56937615 15.27821866 13.56937615 15.27821866 7.125 10.625 C5.73086072 9.43880014 4.35103702 8.23506818 3 7 C2.34 6.67 1.68 6.34 1 6 C0.375 2.9375 0.375 2.9375 0 0 Z " fill="#82BD00" transform="translate(578,148)"/>
<path d="M0 0 C0.47824219 0.29132813 0.95648438 0.58265625 1.44921875 0.8828125 C10.6579926 5.99344092 20.88786558 8.31921206 31 11 C32.08039551 11.30671631 32.08039551 11.30671631 33.18261719 11.61962891 C41.02656681 13.77038929 46.2255435 13.44311866 53.3125 9.5 C59.80574324 6 59.80574324 6 62 6 C62.33 5.34 62.66 4.68 63 4 C63.495 5.485 63.495 5.485 64 7 C54.92828949 13.54150554 47.26839783 16.30844259 36 15 C23.83228108 12.49062341 11.8049215 8.85189377 0 5 C0 3.35 0 1.7 0 0 Z " fill="#36431D" transform="translate(477,130)"/>
<path d="M0 0 C0.66 0 1.32 0 2 0 C1.16922598 5.33444368 0.06228891 10.59683861 -1.0625 15.875 C-1.24876953 16.75414062 -1.43503906 17.63328125 -1.62695312 18.5390625 C-2.08348476 20.69295534 -2.54119679 22.84659009 -3 25 C-3.96912042 21.72921858 -4 19.60964568 -4 16 C-5.32 19.3 -6.64 22.6 -8 26 C-9.20409448 21.18362207 -8.01511605 18.53779012 -6.25 14.125 C-5.98445312 13.43019531 -5.71890625 12.73539062 -5.4453125 12.01953125 C-3.84380878 7.89138332 -2.04621475 3.93218377 0 0 Z " fill="#3F3F3F" transform="translate(527,383)"/>
<path d="M0 0 C8.33556455 1.01892762 15.7820424 5.42527939 22 11 C21.67 12.32 21.34 13.64 21 15 C20.39414062 14.55269531 19.78828125 14.10539063 19.1640625 13.64453125 C13.94246435 9.87694735 8.8248672 6.7507992 2.93359375 4.140625 C1 3 1 3 0 0 Z " fill="#24281D" transform="translate(569,150)"/>
<path d="M0 0 C2.07169246 0.43473339 4.15727751 0.80654223 6.25 1.125 C7.86648438 1.37636719 7.86648438 1.37636719 9.515625 1.6328125 C10.33546875 1.75398437 11.1553125 1.87515625 12 2 C12 2.33 12 2.66 12 3 C11.2575 3.144375 10.515 3.28875 9.75 3.4375 C7.1046175 3.89370276 7.1046175 3.89370276 5.125 4.75 C1.18852153 5.21311511 -2.4251358 2.98609616 -5.703125 0.93359375 C-9.12430596 -0.45698831 -12.6050892 -0.47044548 -16.25 -0.625 C-16.99507813 -0.66367188 -17.74015625 -0.70234375 -18.5078125 -0.7421875 C-20.3381524 -0.83605108 -22.16904143 -0.91909718 -24 -1 C-24 -1.33 -24 -1.66 -24 -2 C-21.79245484 -2.19656224 -19.58390461 -2.38185459 -17.375 -2.5625 C-16.14523437 -2.66691406 -14.91546875 -2.77132812 -13.6484375 -2.87890625 C-8.38836286 -3.05349117 -4.64905902 -2.32452951 0 0 Z " fill="#1F201D" transform="translate(429,141)"/>
<path d="M0 0 C-8.41667071 5.61111381 -18.22645513 5.38523462 -28 5 C-28 4.34 -28 3.68 -28 3 C-27.17757812 2.96261719 -26.35515625 2.92523438 -25.5078125 2.88671875 C-19.02774569 2.50509819 -13.31512629 1.79913961 -7.21875 -0.4765625 C-4.5255376 -1.11193303 -2.65017927 -0.69987129 0 0 Z " fill="#2E3520" transform="translate(541,147)"/>
<path d="M0 0 C0.66 0.33 1.32 0.66 2 1 C-5.59 8.59 -13.18 16.18 -21 24 C-21.66 23.67 -22.32 23.34 -23 23 C-15.69568836 14.86710152 -8.2434374 7.18866687 0 0 Z " fill="#76AC00" transform="translate(108,270)"/>
<path d="M0 0 C0.61746094 0.32613281 1.23492187 0.65226563 1.87109375 0.98828125 C7.46254535 3.87336815 12.96845269 6.20801855 19 8 C19 8.33 19 8.66 19 9 C12.31006781 8.46048934 6.36539272 7.11293829 0 5 C0 3.35 0 1.7 0 0 Z " fill="#19210B" transform="translate(477,130)"/>
<path d="M0 0 C0.66 0.33 1.32 0.66 2 1 C1.3503125 1.47566406 0.700625 1.95132812 0.03125 2.44140625 C-4.20533378 5.99150654 -6.74544842 8.32295427 -7.59765625 13.9375 C-7.66092002 17.64502081 -7.39344935 21.31323388 -7 25 C-10.12387327 19.74679271 -10.19609027 13.88252582 -9 8 C-6.4328443 4.6452509 -3.51809027 2.31049183 0 0 Z " fill="#BBBBBB" transform="translate(588,329)"/>
<path d="M0 0 C0.33 1.32 0.66 2.64 1 4 C6.28 4.33 11.56 4.66 17 5 C16.67 5.66 16.34 6.32 16 7 C13.06195004 7.08086376 10.12611925 7.1404283 7.1875 7.1875 C5.93743164 7.22520508 5.93743164 7.22520508 4.66210938 7.26367188 C3.45844727 7.27817383 3.45844727 7.27817383 2.23046875 7.29296875 C1.12288208 7.31653442 1.12288208 7.31653442 -0.00708008 7.34057617 C-2.52230522 6.91074167 -3.39441516 5.92536938 -5 4 C-4.67 3.34 -4.34 2.68 -4 2 C-2.515 2.99 -2.515 2.99 -1 4 C-0.67 2.68 -0.34 1.36 0 0 Z " fill="#363A3E" transform="translate(424,361)"/>
<path d="M0 0 C8.62396205 -0.48661855 15.23800667 0.07519976 23 4 C22.01 5.485 22.01 5.485 21 7 C18.36427021 6.02101465 16.15021386 5.11045137 13.875 3.4375 C9.46210999 1.23105499 4.874128 1.24754766 0 1 C0 0.67 0 0.34 0 0 Z " fill="#4B523D" transform="translate(549,145)"/>
<path d="M0 0 C0.66 0 1.32 0 2 0 C1.28547412 4.76350585 0.20465156 9.34201396 -1 14 C-1.33 12.68 -1.66 11.36 -2 10 C-2.66 10 -3.32 10 -4 10 C-2.8905928 6.51329166 -1.73662334 3.22515763 0 0 Z " fill="#4E4E4E" transform="translate(527,383)"/>
<path d="M0 0 C0.66 0.33 1.32 0.66 2 1 C-1.63 4.63 -5.26 8.26 -9 12 C-9.66 11.67 -10.32 11.34 -11 11 C-7.33333333 7.33333333 -3.66666667 3.66666667 0 0 Z " fill="#C5C5C5" transform="translate(384,688)"/>
<path d="M0 0 C3.71888239 0.50712033 6.73454239 1.11608215 10 3 C10 3.66 10 4.32 10 5 C6.87709365 4.51421457 4.00419641 4.0013988 1 3 C0.67 2.01 0.34 1.02 0 0 Z " fill="#1C1E18" transform="translate(569,150)"/>
<path d="M0 0 C0.66 0.33 1.32 0.66 2 1 C0.515 2.485 0.515 2.485 -1 4 C-0.34 4.66 0.32 5.32 1 6 C-1.64 6.66 -4.28 7.32 -7 8 C-5.50902342 4.2047869 -3.24299151 2.38957269 0 0 Z " fill="#383839" transform="translate(630,269)"/>
<path d="M0 0 C3.72433382 1.2125738 7.37802806 2.50859979 11 4 C9.68 4.99 8.36 5.98 7 7 C5.82780457 6.21654285 4.66236332 5.42297164 3.5 4.625 C2.8503125 4.18414062 2.200625 3.74328125 1.53125 3.2890625 C1.0259375 2.86367187 0.520625 2.43828125 0 2 C0 1.34 0 0.68 0 0 Z " fill="#4B4B4B" transform="translate(366,234)"/>
<path d="M0 0 C4.62 0 9.24 0 14 0 C14 0.33 14 0.66 14 1 C9.05 1.66 4.1 2.32 -1 3 C-0.67 2.01 -0.34 1.02 0 0 Z " fill="#090909" transform="translate(471,143)"/>
<path d="M0 0 C0 0.33 0 0.66 0 1 C-0.7425 1.144375 -1.485 1.28875 -2.25 1.4375 C-4.92165768 1.94746381 -4.92165768 1.94746381 -7.1875 2.625 C-9 3 -9 3 -11 2 C-11 1.34 -11 0.68 -11 0 C-6.94952424 -1.35015859 -4.2079832 -0.62084998 0 0 Z " fill="#3A471D" transform="translate(441,143)"/>
<path d="M0 0 C2.40072955 2.88087546 4.47291037 5.56404834 6 9 C2.18315774 7.44499019 -0.19195732 4.96404505 -3 2 C-2.34 2 -1.68 2 -1 2 C-0.67 1.34 -0.34 0.68 0 0 Z " fill="#2A3D00" transform="translate(431,129)"/>
<path d="M0 0 C2.97 0 5.94 0 9 0 C9 0.33 9 0.66 9 1 C6.36 1 3.72 1 1 1 C1 1.66 1 2.32 1 3 C1.99 3.33 2.98 3.66 4 4 C2.02 4.99 2.02 4.99 0 6 C-0.66 4.68 -1.32 3.36 -2 2 C-1.34 2 -0.68 2 0 2 C0 1.34 0 0.68 0 0 Z " fill="#3B3B3B" transform="translate(596,165)"/>
<path d="M0 0 C0.66 0.99 1.32 1.98 2 3 C-3.625 7 -3.625 7 -7 7 C-7 6.34 -7 5.68 -7 5 C-2.61538462 2 -2.61538462 2 0 2 C0 1.34 0 0.68 0 0 Z " fill="#2B311F" transform="translate(539,134)"/>
<path d="M0 0 C-0.8125 1.9375 -0.8125 1.9375 -2 4 C-2.99 4.33 -3.98 4.66 -5 5 C-5 7.31 -5 9.62 -5 12 C-5.33 12 -5.66 12 -6 12 C-6.48979592 4.65306122 -6.48979592 4.65306122 -4.125 1.5 C-2 0 -2 0 0 0 Z " fill="#A9A9A9" transform="translate(480,25)"/>
<path d="M0 0 C1.32 0.33 2.64 0.66 4 1 C0.04 4.465 0.04 4.465 -4 8 C-4.66 7.67 -5.32 7.34 -6 7 C-4.02 4.69 -2.04 2.38 0 0 Z " fill="#CECECE" transform="translate(393,664)"/>
<path d="M0 0 C2.64 0.66 5.28 1.32 8 2 C5 4 5 4 2.3125 3.625 C1.549375 3.41875 0.78625 3.2125 0 3 C0 2.01 0 1.02 0 0 Z " fill="#191C14" transform="translate(425,140)"/>
<path d="M0 0 C0 0.66 0 1.32 0 2 C0.66 2.66 1.32 3.32 2 4 C-0.64 4 -3.28 4 -6 4 C-2.25 0 -2.25 0 0 0 Z " fill="#73A800" transform="translate(410,131)"/>
<path d="M0 0 C1.98 0.99 3.96 1.98 6 3 C5.01 3.495 5.01 3.495 4 4 C4 4.66 4 5.32 4 6 C2.68 5.34 1.36 4.68 0 4 C0 2.68 0 1.36 0 0 Z " fill="#333A22" transform="translate(477,130)"/>
<path d="M0 0 C2.97 1.98 2.97 1.98 6 4 C5.67 5.32 5.34 6.64 5 8 C0 2.25 0 2.25 0 0 Z " fill="#969696" transform="translate(474,107)"/>
<path d="M0 0 C2.89932357 2.39509338 3.50168276 4.31245243 4 8 C2.35 6.35 0.7 4.7 -1 3 C-0.67 2.01 -0.34 1.02 0 0 Z " fill="#585858" transform="translate(370,189)"/>
</svg>
