<svg xmlns="http://www.w3.org/2000/svg" viewBox="0 0 48 48" fill="none">
  <path fill="#38BDF8" d="M24 10c-5.333 0-8.667 2.667-10 8 2-2.667 4.333-3.667 7-3 1.522.38 2.614 1.49 3.875 2.77C26.523 19.449 28.12 21.06 31 21c5.333 0 8.667-2.667 10-8-2 2.667-4.333 3.667-7 3-1.522-.38-2.614-1.49-3.875-2.77C28.477 11.551 26.88 9.94 24 10Zm-10 12c-5.333 0-8.667 2.667-10 8 2-2.667 4.333-3.667 7-3 1.522.38 2.614 1.49 3.875 2.77C16.523 31.449 18.12 33.06 21 33c5.333 0 8.667-2.667 10-8-2 2.667-4.333 3.667-7 3-1.522-.38-2.614-1.49-3.875-2.77C18.477 22.551 16.88 20.94 14 22Z"/>
</svg>
